<?xml version="1.0" encoding="utf-8"?>
<!-- Generator: Adobe Illustrator 16.0.0, SVG Export Plug-In . SVG Version: 6.00 Build 0)  -->
<!DOCTYPE svg PUBLIC "-//W3C//DTD SVG 1.1//EN" "http://www.w3.org/Graphics/SVG/1.1/DTD/svg11.dtd">
<svg version="1.1" id="Capa_1" xmlns="http://www.w3.org/2000/svg" xmlns:xlink="http://www.w3.org/1999/xlink" x="0px" y="0px"
	 width="236.924px" height="13.682px" viewBox="-17.334 -62.569 236.924 13.682"
	 enable-background="new -17.334 -62.569 236.924 13.682" xml:space="preserve">
<text transform="matrix(1 0 0 1 -31.0002 -145.9099)" fill="#FFFFFF" font-family="'Inter-Medium'" font-size="14">gestion@todoreformastenerife.com</text>
<g enable-background="new    ">
	<path fill="#FFFFFF" d="M-13.799-48.887c-0.607,0-1.128-0.079-1.564-0.238c-0.436-0.159-0.791-0.37-1.066-0.632
		c-0.275-0.262-0.48-0.548-0.616-0.859l1.278-0.527c0.089,0.146,0.209,0.301,0.36,0.465s0.356,0.304,0.616,0.42
		s0.596,0.174,1.007,0.174c0.563,0,1.029-0.137,1.397-0.41c0.368-0.273,0.552-0.708,0.552-1.305v-1.501h-0.094
		c-0.089,0.162-0.218,0.343-0.385,0.541c-0.167,0.199-0.397,0.372-0.688,0.518c-0.292,0.146-0.671,0.219-1.139,0.219
		c-0.603,0-1.146-0.142-1.628-0.425c-0.482-0.284-0.864-0.703-1.144-1.258c-0.28-0.556-0.42-1.239-0.42-2.051
		c0-0.813,0.139-1.509,0.416-2.089c0.276-0.579,0.657-1.024,1.141-1.334c0.484-0.311,1.033-0.465,1.646-0.465
		c0.474,0,0.857,0.078,1.148,0.235c0.292,0.158,0.52,0.341,0.684,0.55s0.291,0.393,0.38,0.552h0.109v-1.238h1.457v7.806
		c0,0.656-0.153,1.195-0.458,1.616c-0.305,0.421-0.717,0.732-1.235,0.935C-12.566-48.988-13.15-48.887-13.799-48.887z
		 M-13.814-53.258c0.428,0,0.79-0.1,1.086-0.301c0.296-0.2,0.522-0.488,0.676-0.864c0.154-0.377,0.231-0.828,0.231-1.355
		c0-0.514-0.076-0.966-0.229-1.357c-0.153-0.391-0.376-0.696-0.671-0.917c-0.295-0.22-0.66-0.33-1.094-0.33
		c-0.447,0-0.82,0.115-1.119,0.345c-0.298,0.23-0.523,0.543-0.673,0.938c-0.151,0.395-0.227,0.835-0.227,1.322
		c0,0.501,0.076,0.939,0.229,1.317c0.152,0.378,0.378,0.673,0.678,0.886C-14.625-53.363-14.255-53.258-13.814-53.258z"/>
	<path fill="#FFFFFF" d="M-5.069-51.756c-0.752,0-1.399-0.162-1.941-0.485c-0.542-0.322-0.959-0.778-1.253-1.367
		c-0.293-0.588-0.44-1.278-0.44-2.07c0-0.782,0.146-1.472,0.44-2.068s0.704-1.062,1.233-1.396s1.147-0.502,1.857-0.502
		c0.431,0,0.849,0.071,1.253,0.213c0.404,0.143,0.767,0.367,1.089,0.672c0.321,0.305,0.575,0.7,0.761,1.186
		c0.186,0.485,0.278,1.074,0.278,1.768v0.526h-6.07v-1.113h4.613c0-0.391-0.079-0.738-0.238-1.042
		c-0.159-0.303-0.382-0.542-0.669-0.718s-0.622-0.264-1.007-0.264c-0.417,0-0.781,0.102-1.091,0.306
		c-0.31,0.204-0.549,0.469-0.716,0.796c-0.167,0.326-0.251,0.68-0.251,1.062v0.869c0,0.511,0.09,0.945,0.271,1.303
		c0.181,0.358,0.433,0.631,0.758,0.818c0.325,0.188,0.704,0.28,1.138,0.28c0.282,0,0.539-0.04,0.771-0.121
		c0.232-0.081,0.432-0.203,0.602-0.366c0.169-0.162,0.298-0.362,0.388-0.602l1.407,0.254C-2-53.405-2.201-53.043-2.491-52.733
		c-0.29,0.311-0.653,0.551-1.089,0.722C-4.016-51.842-4.512-51.756-5.069-51.756z"/>
	<path fill="#FFFFFF" d="M5.585-57.682l-1.347,0.239c-0.057-0.173-0.145-0.337-0.266-0.492c-0.121-0.156-0.284-0.283-0.49-0.383
		s-0.462-0.149-0.771-0.149c-0.421,0-0.772,0.094-1.054,0.281s-0.422,0.428-0.422,0.723c0,0.256,0.094,0.461,0.283,0.617
		c0.189,0.155,0.494,0.283,0.915,0.383l1.213,0.278c0.703,0.162,1.226,0.412,1.571,0.751c0.345,0.338,0.517,0.776,0.517,1.317
		c0,0.457-0.132,0.864-0.395,1.22c-0.264,0.356-0.63,0.636-1.099,0.838c-0.469,0.202-1.012,0.304-1.628,0.304
		c-0.855,0-1.553-0.184-2.093-0.55c-0.541-0.366-0.872-0.887-0.995-1.563l1.437-0.219c0.089,0.375,0.273,0.657,0.552,0.848
		s0.641,0.286,1.089,0.286c0.487,0,0.876-0.102,1.168-0.306c0.292-0.204,0.438-0.453,0.438-0.748c0-0.239-0.088-0.439-0.266-0.602
		c-0.177-0.163-0.448-0.285-0.813-0.368L1.837-55.26c-0.713-0.163-1.239-0.421-1.579-0.775c-0.34-0.355-0.51-0.804-0.51-1.348
		c0-0.451,0.126-0.846,0.378-1.184s0.6-0.603,1.044-0.793c0.444-0.19,0.953-0.285,1.526-0.285c0.825,0,1.475,0.178,1.949,0.534
		C5.119-58.755,5.433-58.278,5.585-57.682z"/>
	<path fill="#FFFFFF" d="M10.929-59.547v1.193H6.758v-1.193H10.929z M7.877-61.376h1.487v7.224c0,0.288,0.043,0.505,0.129,0.648
		c0.086,0.145,0.198,0.242,0.336,0.294c0.137,0.051,0.287,0.077,0.45,0.077c0.119,0,0.224-0.009,0.313-0.025
		c0.089-0.017,0.159-0.029,0.208-0.04l0.269,1.229c-0.086,0.033-0.209,0.067-0.368,0.102c-0.159,0.035-0.358,0.054-0.597,0.058
		c-0.391,0.007-0.756-0.063-1.094-0.209c-0.338-0.146-0.612-0.371-0.82-0.676c-0.209-0.306-0.313-0.688-0.313-1.148V-61.376z"/>
	<path fill="#FFFFFF" d="M13.321-60.724c-0.258,0-0.48-0.087-0.664-0.261c-0.184-0.175-0.276-0.383-0.276-0.624
		c0-0.245,0.092-0.455,0.276-0.629c0.184-0.175,0.405-0.262,0.664-0.262s0.48,0.087,0.664,0.262
		c0.184,0.174,0.276,0.384,0.276,0.629c0,0.241-0.092,0.449-0.276,0.624C13.801-60.811,13.579-60.724,13.321-60.724z M12.57-51.91
		v-7.637h1.486v7.637H12.57z"/>
	<path fill="#FFFFFF" d="M19.271-51.756c-0.716,0-1.341-0.164-1.874-0.492c-0.534-0.328-0.948-0.787-1.243-1.377
		s-0.442-1.279-0.442-2.068c0-0.792,0.147-1.485,0.442-2.078c0.295-0.594,0.709-1.054,1.243-1.382
		c0.533-0.328,1.158-0.492,1.874-0.492s1.341,0.164,1.875,0.492s0.948,0.788,1.243,1.382c0.295,0.593,0.442,1.286,0.442,2.078
		c0,0.789-0.147,1.479-0.442,2.068s-0.709,1.049-1.243,1.377S19.987-51.756,19.271-51.756z M19.276-53.004
		c0.464,0,0.849-0.123,1.154-0.368c0.305-0.245,0.531-0.571,0.678-0.979c0.147-0.407,0.221-0.856,0.221-1.347
		c0-0.487-0.074-0.936-0.221-1.345s-0.374-0.738-0.678-0.987c-0.305-0.248-0.689-0.373-1.154-0.373
		c-0.467,0-0.854,0.125-1.161,0.373c-0.307,0.249-0.534,0.578-0.681,0.987s-0.221,0.857-0.221,1.345c0,0.49,0.074,0.939,0.221,1.347
		c0.147,0.408,0.375,0.734,0.681,0.979S18.809-53.004,19.276-53.004z"/>
	<path fill="#FFFFFF" d="M25.973-56.444v4.534h-1.486v-7.637h1.427v1.243h0.094c0.176-0.404,0.452-0.729,0.828-0.975
		c0.376-0.245,0.851-0.367,1.425-0.367c0.52,0,0.976,0.108,1.367,0.325c0.391,0.217,0.694,0.539,0.91,0.967
		c0.215,0.428,0.323,0.956,0.323,1.586v4.857h-1.487v-4.679c0-0.553-0.144-0.986-0.433-1.3c-0.288-0.313-0.684-0.47-1.188-0.47
		c-0.345,0-0.65,0.074-0.917,0.224c-0.267,0.149-0.477,0.367-0.631,0.654C26.05-57.194,25.973-56.848,25.973-56.444z"/>
	<path fill="#FFFFFF" d="M38.979-49.14c-1.028,0-1.938-0.141-2.732-0.421c-0.794-0.279-1.462-0.69-2.006-1.232
		c-0.543-0.542-0.956-1.206-1.238-1.991s-0.422-1.682-0.422-2.689c0-0.981,0.142-1.863,0.427-2.646
		c0.285-0.781,0.7-1.449,1.246-2.001c0.545-0.552,1.209-0.974,1.991-1.265c0.782-0.292,1.67-0.438,2.665-0.438
		c0.951,0,1.79,0.148,2.516,0.447c0.726,0.298,1.336,0.708,1.832,1.228c0.496,0.521,0.869,1.117,1.121,1.79s0.378,1.384,0.378,2.133
		c0,0.523-0.033,1.035-0.1,1.534c-0.066,0.498-0.188,0.949-0.365,1.352c-0.177,0.403-0.433,0.725-0.766,0.965S42.76-52.01,42.23-52
		c-0.282,0.011-0.555-0.022-0.82-0.099c-0.266-0.076-0.491-0.2-0.676-0.371c-0.186-0.17-0.298-0.389-0.338-0.653h-0.06
		c-0.08,0.195-0.212,0.377-0.397,0.544c-0.186,0.168-0.422,0.3-0.708,0.398c-0.287,0.098-0.619,0.138-0.997,0.121
		c-0.417-0.017-0.793-0.11-1.128-0.283c-0.335-0.172-0.621-0.411-0.857-0.716c-0.237-0.305-0.418-0.666-0.544-1.084
		c-0.126-0.417-0.189-0.882-0.189-1.392c0-0.491,0.071-0.931,0.214-1.32s0.337-0.726,0.584-1.009
		c0.247-0.284,0.531-0.508,0.853-0.674c0.322-0.166,0.662-0.271,1.02-0.313c0.348-0.04,0.667-0.029,0.959,0.03
		c0.292,0.06,0.534,0.15,0.728,0.273c0.194,0.122,0.316,0.257,0.366,0.402h0.064v-0.557h1.223v4.613
		c0,0.262,0.069,0.484,0.206,0.666c0.138,0.183,0.334,0.273,0.589,0.273c0.301,0,0.538-0.11,0.708-0.333
		c0.17-0.222,0.292-0.563,0.363-1.023c0.071-0.461,0.107-1.051,0.107-1.771c0-0.504-0.067-0.979-0.201-1.424
		c-0.134-0.446-0.332-0.851-0.592-1.214c-0.26-0.362-0.579-0.675-0.957-0.937s-0.808-0.464-1.29-0.606
		c-0.482-0.143-1.015-0.214-1.599-0.214c-0.792,0-1.496,0.122-2.113,0.365c-0.616,0.243-1.136,0.594-1.559,1.052
		c-0.422,0.457-0.743,1.005-0.959,1.643c-0.217,0.639-0.326,1.354-0.326,2.146c0,0.825,0.111,1.557,0.333,2.195
		c0.222,0.638,0.55,1.176,0.984,1.613s0.971,0.77,1.611,0.996c0.64,0.228,1.377,0.341,2.212,0.341c0.371,0,0.736-0.032,1.094-0.097
		s0.677-0.138,0.957-0.219s0.49-0.146,0.629-0.196l0.348,1.089c-0.206,0.096-0.478,0.19-0.818,0.283s-0.708,0.169-1.104,0.229
		C39.753-49.171,39.363-49.14,38.979-49.14z M38.521-53.277c0.431,0,0.778-0.086,1.042-0.259c0.264-0.172,0.454-0.43,0.572-0.772
		c0.118-0.344,0.176-0.773,0.176-1.29c-0.003-0.504-0.067-0.906-0.191-1.206c-0.124-0.3-0.316-0.516-0.577-0.646
		s-0.594-0.196-1.001-0.196c-0.375,0-0.694,0.091-0.957,0.273c-0.264,0.183-0.464,0.43-0.602,0.741
		c-0.138,0.312-0.208,0.657-0.211,1.039c0.003,0.4,0.061,0.777,0.171,1.131c0.111,0.353,0.293,0.639,0.547,0.857
		C37.743-53.386,38.087-53.277,38.521-53.277z"/>
	<path fill="#FFFFFF" d="M49.961-59.547v1.193h-4.171v-1.193H49.961z M46.908-61.376h1.487v7.224c0,0.288,0.043,0.505,0.129,0.648
		c0.086,0.145,0.198,0.242,0.336,0.294c0.137,0.051,0.287,0.077,0.45,0.077c0.119,0,0.224-0.009,0.313-0.025
		c0.089-0.017,0.159-0.029,0.208-0.04l0.269,1.229c-0.086,0.033-0.209,0.067-0.368,0.102c-0.159,0.035-0.358,0.054-0.597,0.058
		c-0.391,0.007-0.756-0.063-1.094-0.209c-0.338-0.146-0.612-0.371-0.82-0.676c-0.209-0.306-0.313-0.688-0.313-1.148V-61.376z"/>
	<path fill="#FFFFFF" d="M54.739-51.756c-0.716,0-1.341-0.164-1.874-0.492c-0.534-0.328-0.948-0.787-1.243-1.377
		s-0.442-1.279-0.442-2.068c0-0.792,0.147-1.485,0.442-2.078c0.295-0.594,0.709-1.054,1.243-1.382
		c0.533-0.328,1.158-0.492,1.874-0.492s1.341,0.164,1.875,0.492s0.948,0.788,1.243,1.382c0.295,0.593,0.442,1.286,0.442,2.078
		c0,0.789-0.147,1.479-0.442,2.068s-0.709,1.049-1.243,1.377S55.454-51.756,54.739-51.756z M54.743-53.004
		c0.464,0,0.849-0.123,1.154-0.368c0.305-0.245,0.531-0.571,0.678-0.979c0.147-0.407,0.221-0.856,0.221-1.347
		c0-0.487-0.074-0.936-0.221-1.345s-0.374-0.738-0.678-0.987c-0.305-0.248-0.689-0.373-1.154-0.373
		c-0.467,0-0.854,0.125-1.161,0.373c-0.307,0.249-0.534,0.578-0.681,0.987s-0.221,0.857-0.221,1.345c0,0.49,0.074,0.939,0.221,1.347
		c0.147,0.408,0.375,0.734,0.681,0.979S54.276-53.004,54.743-53.004z"/>
	<path fill="#FFFFFF" d="M62.812-51.76c-0.616,0-1.166-0.158-1.648-0.475c-0.482-0.317-0.86-0.77-1.134-1.357
		c-0.273-0.589-0.41-1.295-0.41-2.121c0-0.825,0.139-1.531,0.416-2.117c0.276-0.587,0.657-1.036,1.141-1.348
		s1.033-0.467,1.646-0.467c0.474,0,0.856,0.078,1.146,0.235c0.29,0.158,0.516,0.341,0.676,0.55s0.286,0.393,0.375,0.552h0.089
		v-3.783h1.486v10.182h-1.452v-1.188H65.02c-0.089,0.163-0.218,0.349-0.385,0.557c-0.167,0.209-0.397,0.392-0.688,0.547
		C63.654-51.839,63.276-51.76,62.812-51.76z M63.14-53.028c0.428,0,0.79-0.114,1.086-0.341c0.296-0.228,0.522-0.543,0.676-0.947
		c0.154-0.404,0.231-0.875,0.231-1.412c0-0.53-0.076-0.994-0.229-1.392c-0.153-0.398-0.376-0.708-0.671-0.93
		c-0.295-0.223-0.66-0.333-1.094-0.333c-0.447,0-0.82,0.115-1.119,0.348s-0.523,0.549-0.673,0.949
		c-0.151,0.401-0.227,0.854-0.227,1.357c0,0.511,0.076,0.97,0.229,1.377c0.152,0.408,0.378,0.73,0.678,0.968
		C62.329-53.147,62.699-53.028,63.14-53.028z"/>
	<path fill="#FFFFFF" d="M71.93-51.756c-0.716,0-1.341-0.164-1.874-0.492c-0.534-0.328-0.948-0.787-1.243-1.377
		s-0.442-1.279-0.442-2.068c0-0.792,0.147-1.485,0.442-2.078c0.295-0.594,0.709-1.054,1.243-1.382
		c0.533-0.328,1.158-0.492,1.874-0.492s1.341,0.164,1.875,0.492s0.948,0.788,1.243,1.382c0.295,0.593,0.442,1.286,0.442,2.078
		c0,0.789-0.147,1.479-0.442,2.068s-0.709,1.049-1.243,1.377S72.646-51.756,71.93-51.756z M71.935-53.004
		c0.464,0,0.849-0.123,1.154-0.368c0.305-0.245,0.531-0.571,0.678-0.979c0.147-0.407,0.221-0.856,0.221-1.347
		c0-0.487-0.074-0.936-0.221-1.345s-0.374-0.738-0.678-0.987c-0.305-0.248-0.689-0.373-1.154-0.373
		c-0.467,0-0.854,0.125-1.161,0.373c-0.307,0.249-0.534,0.578-0.681,0.987s-0.221,0.857-0.221,1.345c0,0.49,0.074,0.939,0.221,1.347
		c0.147,0.408,0.375,0.734,0.681,0.979S71.468-53.004,71.935-53.004z"/>
	<path fill="#FFFFFF" d="M77.145-51.91v-7.637h1.437v1.214h0.08c0.139-0.411,0.385-0.735,0.738-0.973
		c0.353-0.236,0.753-0.355,1.201-0.355c0.093,0,0.203,0.004,0.331,0.01c0.127,0.007,0.228,0.016,0.301,0.025v1.422
		c-0.06-0.017-0.166-0.036-0.318-0.058s-0.305-0.032-0.457-0.032c-0.352,0-0.664,0.074-0.938,0.222s-0.49,0.352-0.648,0.611
		c-0.159,0.26-0.239,0.556-0.239,0.888v4.663H77.145z"/>
	<path fill="#FFFFFF" d="M85.537-51.756c-0.752,0-1.399-0.162-1.941-0.485c-0.542-0.322-0.959-0.778-1.253-1.367
		c-0.293-0.588-0.44-1.278-0.44-2.07c0-0.782,0.146-1.472,0.44-2.068s0.704-1.062,1.233-1.396s1.147-0.502,1.857-0.502
		c0.431,0,0.849,0.071,1.253,0.213c0.404,0.143,0.767,0.367,1.089,0.672c0.321,0.305,0.575,0.7,0.761,1.186
		c0.186,0.485,0.278,1.074,0.278,1.768v0.526h-6.07v-1.113h4.613c0-0.391-0.079-0.738-0.238-1.042
		c-0.159-0.303-0.382-0.542-0.669-0.718s-0.622-0.264-1.007-0.264c-0.417,0-0.781,0.102-1.091,0.306
		c-0.31,0.204-0.549,0.469-0.716,0.796c-0.167,0.326-0.251,0.68-0.251,1.062v0.869c0,0.511,0.09,0.945,0.271,1.303
		c0.181,0.358,0.433,0.631,0.758,0.818c0.325,0.188,0.704,0.28,1.138,0.28c0.282,0,0.539-0.04,0.771-0.121
		c0.232-0.081,0.432-0.203,0.602-0.366c0.169-0.162,0.298-0.362,0.388-0.602l1.407,0.254c-0.113,0.414-0.314,0.776-0.604,1.086
		c-0.29,0.311-0.653,0.551-1.089,0.722C86.591-51.842,86.094-51.756,85.537-51.756z"/>
	<path fill="#FFFFFF" d="M94.103-59.547v1.193h-4.315v-1.193H94.103z M90.971-51.91v-8.521c0-0.478,0.104-0.874,0.313-1.19
		c0.209-0.316,0.486-0.554,0.831-0.711s0.719-0.236,1.124-0.236c0.298,0,0.553,0.024,0.766,0.072
		c0.212,0.048,0.37,0.092,0.472,0.132l-0.348,1.203c-0.069-0.021-0.159-0.044-0.268-0.072s-0.242-0.042-0.398-0.042
		c-0.361,0-0.619,0.089-0.773,0.269c-0.154,0.179-0.231,0.438-0.231,0.775v8.322H90.971z"/>
	<path fill="#FFFFFF" d="M98.548-51.756c-0.716,0-1.341-0.164-1.874-0.492c-0.534-0.328-0.948-0.787-1.243-1.377
		s-0.442-1.279-0.442-2.068c0-0.792,0.147-1.485,0.442-2.078c0.295-0.594,0.709-1.054,1.243-1.382
		c0.533-0.328,1.158-0.492,1.874-0.492s1.341,0.164,1.875,0.492s0.948,0.788,1.243,1.382c0.295,0.593,0.442,1.286,0.442,2.078
		c0,0.789-0.147,1.479-0.442,2.068s-0.709,1.049-1.243,1.377S99.263-51.756,98.548-51.756z M98.552-53.004
		c0.464,0,0.849-0.123,1.154-0.368c0.305-0.245,0.531-0.571,0.678-0.979c0.147-0.407,0.221-0.856,0.221-1.347
		c0-0.487-0.074-0.936-0.221-1.345s-0.374-0.738-0.678-0.987c-0.305-0.248-0.689-0.373-1.154-0.373
		c-0.467,0-0.854,0.125-1.161,0.373c-0.307,0.249-0.534,0.578-0.681,0.987s-0.221,0.857-0.221,1.345c0,0.49,0.074,0.939,0.221,1.347
		c0.147,0.408,0.375,0.734,0.681,0.979S98.085-53.004,98.552-53.004z"/>
	<path fill="#FFFFFF" d="M103.763-51.91v-7.637h1.437v1.214h0.08c0.139-0.411,0.385-0.735,0.738-0.973
		c0.353-0.236,0.753-0.355,1.201-0.355c0.093,0,0.203,0.004,0.331,0.01c0.127,0.007,0.228,0.016,0.301,0.025v1.422
		c-0.06-0.017-0.166-0.036-0.318-0.058s-0.305-0.032-0.457-0.032c-0.352,0-0.664,0.074-0.938,0.222s-0.49,0.352-0.648,0.611
		c-0.159,0.26-0.239,0.556-0.239,0.888v4.663H103.763z"/>
	<path fill="#FFFFFF" d="M109.142-51.91v-7.637h1.427v1.243h0.094c0.159-0.421,0.419-0.75,0.781-0.986
		c0.361-0.237,0.793-0.355,1.297-0.355c0.51,0,0.939,0.119,1.285,0.357s0.603,0.566,0.768,0.984h0.08
		c0.182-0.407,0.472-0.733,0.87-0.977c0.398-0.244,0.872-0.365,1.422-0.365c0.693,0,1.259,0.217,1.698,0.65
		c0.438,0.435,0.659,1.089,0.659,1.964v5.121h-1.486v-4.981c0-0.518-0.142-0.892-0.423-1.124c-0.282-0.231-0.618-0.348-1.009-0.348
		c-0.484,0-0.86,0.148-1.128,0.445c-0.269,0.296-0.403,0.677-0.403,1.141v4.867h-1.481v-5.076c0-0.414-0.129-0.747-0.388-0.999
		c-0.258-0.252-0.595-0.378-1.009-0.378c-0.282,0-0.541,0.074-0.778,0.222c-0.237,0.147-0.428,0.352-0.572,0.613
		s-0.216,0.565-0.216,0.91v4.708H109.142z"/>
	<path fill="#FFFFFF" d="M123.734-51.741c-0.484,0-0.922-0.09-1.313-0.271c-0.392-0.181-0.701-0.443-0.928-0.788
		s-0.341-0.768-0.341-1.268c0-0.432,0.083-0.786,0.249-1.064s0.389-0.499,0.671-0.661s0.597-0.285,0.944-0.368
		s0.703-0.146,1.064-0.188c0.457-0.053,0.828-0.097,1.113-0.132s0.492-0.092,0.621-0.172c0.13-0.079,0.194-0.209,0.194-0.388v-0.034
		c0-0.435-0.122-0.771-0.365-1.01s-0.606-0.357-1.087-0.357c-0.5,0-0.894,0.109-1.18,0.33c-0.287,0.221-0.485,0.465-0.595,0.733
		l-1.397-0.318c0.166-0.464,0.408-0.839,0.729-1.126c0.32-0.286,0.689-0.495,1.106-0.626s0.856-0.196,1.317-0.196
		c0.305,0,0.629,0.035,0.973,0.106c0.342,0.071,0.664,0.201,0.964,0.391c0.3,0.188,0.546,0.458,0.738,0.808s0.288,0.803,0.288,1.359
		v5.071h-1.451v-1.044h-0.061c-0.096,0.192-0.24,0.381-0.432,0.566c-0.192,0.186-0.439,0.34-0.741,0.463
		C124.515-51.802,124.154-51.741,123.734-51.741z M124.056-52.934c0.411,0,0.764-0.081,1.057-0.243s0.518-0.376,0.672-0.639
		c0.153-0.264,0.23-0.546,0.23-0.848v-0.984c-0.053,0.053-0.154,0.102-0.306,0.146s-0.322,0.083-0.515,0.114
		c-0.191,0.031-0.379,0.06-0.562,0.084c-0.183,0.025-0.335,0.046-0.458,0.063c-0.288,0.036-0.551,0.098-0.787,0.184
		c-0.237,0.087-0.426,0.21-0.567,0.371c-0.141,0.16-0.211,0.373-0.211,0.639c0,0.368,0.136,0.646,0.407,0.833
		C123.289-53.028,123.636-52.934,124.056-52.934z"/>
	<path fill="#FFFFFF" d="M135.203-57.682l-1.347,0.239c-0.057-0.173-0.146-0.337-0.267-0.492c-0.121-0.156-0.283-0.283-0.489-0.383
		s-0.462-0.149-0.771-0.149c-0.421,0-0.772,0.094-1.055,0.281c-0.281,0.188-0.422,0.428-0.422,0.723
		c0,0.256,0.094,0.461,0.283,0.617c0.189,0.155,0.494,0.283,0.915,0.383l1.213,0.278c0.702,0.162,1.226,0.412,1.571,0.751
		c0.344,0.338,0.517,0.776,0.517,1.317c0,0.457-0.132,0.864-0.396,1.22c-0.264,0.356-0.629,0.636-1.098,0.838
		c-0.47,0.202-1.012,0.304-1.629,0.304c-0.855,0-1.553-0.184-2.093-0.55s-0.872-0.887-0.995-1.563l1.438-0.219
		c0.09,0.375,0.273,0.657,0.552,0.848s0.642,0.286,1.089,0.286c0.487,0,0.877-0.102,1.168-0.306
		c0.292-0.204,0.438-0.453,0.438-0.748c0-0.239-0.088-0.439-0.266-0.602c-0.178-0.163-0.448-0.285-0.813-0.368l-1.293-0.283
		c-0.713-0.163-1.238-0.421-1.578-0.775c-0.34-0.355-0.51-0.804-0.51-1.348c0-0.451,0.125-0.846,0.377-1.184
		s0.601-0.603,1.045-0.793c0.443-0.19,0.953-0.285,1.525-0.285c0.826,0,1.476,0.178,1.949,0.534
		C134.738-58.755,135.051-58.278,135.203-57.682z"/>
	<path fill="#FFFFFF" d="M140.548-59.547v1.193h-4.171v-1.193H140.548z M137.495-61.376h1.487v7.224
		c0,0.288,0.043,0.505,0.129,0.648c0.086,0.145,0.197,0.242,0.336,0.294c0.137,0.051,0.287,0.077,0.449,0.077
		c0.119,0,0.224-0.009,0.313-0.025c0.089-0.017,0.159-0.029,0.208-0.04l0.27,1.229c-0.087,0.033-0.209,0.067-0.368,0.102
		c-0.159,0.035-0.358,0.054-0.597,0.058c-0.391,0.007-0.756-0.063-1.094-0.209s-0.611-0.371-0.82-0.676
		c-0.209-0.306-0.313-0.688-0.313-1.148V-61.376z"/>
	<path fill="#FFFFFF" d="M145.4-51.756c-0.753,0-1.4-0.162-1.941-0.485c-0.543-0.322-0.96-0.778-1.254-1.367
		c-0.293-0.588-0.439-1.278-0.439-2.07c0-0.782,0.146-1.472,0.439-2.068c0.294-0.597,0.705-1.062,1.233-1.396
		s1.147-0.502,1.856-0.502c0.432,0,0.85,0.071,1.254,0.213c0.404,0.143,0.767,0.367,1.088,0.672c0.322,0.305,0.575,0.7,0.762,1.186
		c0.186,0.485,0.277,1.074,0.277,1.768v0.526h-6.07v-1.113h4.613c0-0.391-0.078-0.738-0.238-1.042
		c-0.158-0.303-0.382-0.542-0.668-0.718c-0.287-0.176-0.623-0.264-1.008-0.264c-0.417,0-0.781,0.102-1.09,0.306
		c-0.311,0.204-0.549,0.469-0.717,0.796c-0.167,0.326-0.251,0.68-0.251,1.062v0.869c0,0.511,0.091,0.945,0.271,1.303
		c0.182,0.358,0.434,0.631,0.759,0.818s0.704,0.28,1.138,0.28c0.282,0,0.539-0.04,0.771-0.121s0.432-0.203,0.602-0.366
		c0.169-0.162,0.299-0.362,0.388-0.602l1.407,0.254c-0.113,0.414-0.314,0.776-0.604,1.086c-0.29,0.311-0.653,0.551-1.089,0.722
		C146.453-51.842,145.957-51.756,145.4-51.756z"/>
	<path fill="#FFFFFF" d="M151.818-56.444v4.534h-1.486v-7.637h1.427v1.243h0.095c0.176-0.404,0.451-0.729,0.827-0.975
		s0.851-0.367,1.425-0.367c0.52,0,0.977,0.108,1.367,0.325s0.693,0.539,0.91,0.967c0.215,0.428,0.322,0.956,0.322,1.586v4.857
		h-1.486v-4.679c0-0.553-0.145-0.986-0.433-1.3s-0.685-0.47-1.188-0.47c-0.344,0-0.65,0.074-0.917,0.224s-0.478,0.367-0.632,0.654
		C151.895-57.194,151.818-56.848,151.818-56.444z"/>
	<path fill="#FFFFFF" d="M161.984-51.756c-0.752,0-1.398-0.162-1.941-0.485c-0.541-0.322-0.959-0.778-1.252-1.367
		c-0.294-0.588-0.44-1.278-0.44-2.07c0-0.782,0.146-1.472,0.44-2.068c0.293-0.597,0.703-1.062,1.232-1.396s1.147-0.502,1.857-0.502
		c0.43,0,0.848,0.071,1.252,0.213c0.404,0.143,0.768,0.367,1.09,0.672c0.32,0.305,0.574,0.7,0.76,1.186s0.279,1.074,0.279,1.768
		v0.526h-6.07v-1.113h4.613c0-0.391-0.08-0.738-0.238-1.042c-0.16-0.303-0.383-0.542-0.67-0.718
		c-0.286-0.176-0.621-0.264-1.006-0.264c-0.418,0-0.781,0.102-1.092,0.306c-0.31,0.204-0.549,0.469-0.716,0.796
		c-0.167,0.326-0.251,0.68-0.251,1.062v0.869c0,0.511,0.09,0.945,0.271,1.303c0.18,0.358,0.433,0.631,0.758,0.818
		c0.324,0.188,0.704,0.28,1.139,0.28c0.281,0,0.538-0.04,0.771-0.121c0.231-0.081,0.433-0.203,0.602-0.366
		c0.169-0.162,0.298-0.362,0.388-0.602l1.406,0.254c-0.112,0.414-0.313,0.776-0.604,1.086c-0.29,0.311-0.652,0.551-1.089,0.722
		C163.038-51.842,162.541-51.756,161.984-51.756z"/>
	<path fill="#FFFFFF" d="M166.917-51.91v-7.637h1.437v1.214h0.08c0.139-0.411,0.385-0.735,0.738-0.973
		c0.353-0.236,0.753-0.355,1.2-0.355c0.093,0,0.203,0.004,0.331,0.01c0.127,0.007,0.228,0.016,0.301,0.025v1.422
		c-0.061-0.017-0.166-0.036-0.318-0.058s-0.305-0.032-0.457-0.032c-0.352,0-0.664,0.074-0.938,0.222s-0.49,0.352-0.648,0.611
		c-0.16,0.26-0.239,0.556-0.239,0.888v4.663H166.917z"/>
	<path fill="#FFFFFF" d="M173.047-60.724c-0.258,0-0.48-0.087-0.664-0.261c-0.184-0.175-0.275-0.383-0.275-0.624
		c0-0.245,0.092-0.455,0.275-0.629c0.184-0.175,0.406-0.262,0.664-0.262s0.48,0.087,0.664,0.262
		c0.184,0.174,0.275,0.384,0.275,0.629c0,0.241-0.092,0.449-0.275,0.624C173.527-60.811,173.304-60.724,173.047-60.724z
		 M172.297-51.91v-7.637h1.486v7.637H172.297z"/>
	<path fill="#FFFFFF" d="M179.415-59.547v1.193h-4.315v-1.193H179.415z M176.283-51.91v-8.521c0-0.478,0.104-0.874,0.313-1.19
		c0.209-0.316,0.486-0.554,0.831-0.711s0.72-0.236,1.124-0.236c0.298,0,0.553,0.024,0.766,0.072
		c0.211,0.048,0.369,0.092,0.472,0.132l-0.349,1.203c-0.068-0.021-0.158-0.044-0.268-0.072s-0.242-0.042-0.398-0.042
		c-0.361,0-0.619,0.089-0.772,0.269c-0.154,0.179-0.231,0.438-0.231,0.775v8.322H176.283z"/>
	<path fill="#FFFFFF" d="M183.934-51.756c-0.753,0-1.399-0.162-1.941-0.485c-0.542-0.322-0.96-0.778-1.253-1.367
		c-0.293-0.588-0.439-1.278-0.439-2.07c0-0.782,0.146-1.472,0.439-2.068s0.704-1.062,1.232-1.396
		c0.529-0.335,1.148-0.502,1.857-0.502c0.431,0,0.849,0.071,1.253,0.213c0.404,0.143,0.767,0.367,1.089,0.672
		c0.321,0.305,0.574,0.7,0.761,1.186c0.186,0.485,0.278,1.074,0.278,1.768v0.526h-6.07v-1.113h4.613
		c0-0.391-0.079-0.738-0.238-1.042c-0.159-0.303-0.383-0.542-0.669-0.718s-0.622-0.264-1.007-0.264
		c-0.418,0-0.781,0.102-1.091,0.306s-0.549,0.469-0.716,0.796c-0.168,0.326-0.252,0.68-0.252,1.062v0.869
		c0,0.511,0.091,0.945,0.271,1.303c0.181,0.358,0.434,0.631,0.758,0.818c0.325,0.188,0.705,0.28,1.139,0.28
		c0.281,0,0.539-0.04,0.771-0.121c0.231-0.081,0.432-0.203,0.602-0.366c0.168-0.162,0.298-0.362,0.387-0.602l1.407,0.254
		c-0.112,0.414-0.313,0.776-0.604,1.086c-0.289,0.311-0.652,0.551-1.088,0.722C184.988-51.842,184.491-51.756,183.934-51.756z"/>
	<path fill="#FFFFFF" d="M189.845-51.815c-0.271,0-0.506-0.098-0.701-0.291c-0.195-0.194-0.293-0.429-0.293-0.703
		c0-0.272,0.098-0.505,0.293-0.699c0.195-0.193,0.43-0.291,0.701-0.291s0.506,0.098,0.701,0.291
		c0.195,0.194,0.293,0.427,0.293,0.699c0,0.182-0.045,0.349-0.137,0.499c-0.091,0.151-0.211,0.271-0.359,0.36
		C190.193-51.86,190.028-51.815,189.845-51.815z"/>
	<path fill="#FFFFFF" d="M196.045-51.756c-0.739,0-1.375-0.168-1.906-0.505c-0.532-0.336-0.941-0.801-1.226-1.395
		c-0.285-0.593-0.428-1.272-0.428-2.038c0-0.775,0.146-1.461,0.438-2.056s0.702-1.06,1.233-1.395
		c0.529-0.335,1.154-0.502,1.874-0.502c0.579,0,1.097,0.106,1.551,0.32s0.821,0.513,1.102,0.897s0.446,0.833,0.499,1.347h-1.446
		c-0.079-0.357-0.261-0.666-0.544-0.924c-0.283-0.259-0.662-0.389-1.137-0.389c-0.414,0-0.776,0.109-1.086,0.326
		c-0.311,0.217-0.551,0.525-0.724,0.925s-0.259,0.871-0.259,1.414c0,0.557,0.085,1.038,0.254,1.442s0.408,0.717,0.719,0.939
		c0.31,0.222,0.675,0.333,1.096,0.333c0.281,0,0.538-0.053,0.769-0.157c0.229-0.104,0.424-0.254,0.581-0.449
		c0.158-0.195,0.268-0.431,0.331-0.706h1.446c-0.053,0.494-0.213,0.935-0.482,1.322c-0.268,0.388-0.627,0.692-1.076,0.915
		C197.174-51.867,196.648-51.756,196.045-51.756z"/>
	<path fill="#FFFFFF" d="M203.994-51.756c-0.715,0-1.34-0.164-1.873-0.492c-0.534-0.328-0.949-0.787-1.244-1.377
		s-0.441-1.279-0.441-2.068c0-0.792,0.146-1.485,0.441-2.078c0.295-0.594,0.71-1.054,1.244-1.382
		c0.533-0.328,1.158-0.492,1.873-0.492c0.717,0,1.342,0.164,1.875,0.492s0.947,0.788,1.242,1.382
		c0.295,0.593,0.443,1.286,0.443,2.078c0,0.789-0.148,1.479-0.443,2.068s-0.709,1.049-1.242,1.377S204.711-51.756,203.994-51.756z
		 M204-53.004c0.464,0,0.848-0.123,1.153-0.368c0.305-0.245,0.53-0.571,0.679-0.979c0.146-0.407,0.221-0.856,0.221-1.347
		c0-0.487-0.074-0.936-0.221-1.345c-0.148-0.409-0.374-0.738-0.679-0.987c-0.306-0.248-0.689-0.373-1.153-0.373
		c-0.468,0-0.854,0.125-1.161,0.373c-0.307,0.249-0.534,0.578-0.681,0.987c-0.148,0.409-0.222,0.857-0.222,1.345
		c0,0.49,0.073,0.939,0.222,1.347c0.146,0.408,0.374,0.734,0.681,0.979S203.532-53.004,204-53.004z"/>
	<path fill="#FFFFFF" d="M209.21-51.91v-7.637h1.427v1.243h0.094c0.16-0.421,0.42-0.75,0.781-0.986
		c0.361-0.237,0.793-0.355,1.297-0.355c0.511,0,0.939,0.119,1.285,0.357c0.347,0.238,0.604,0.566,0.769,0.984h0.079
		c0.183-0.407,0.473-0.733,0.871-0.977c0.397-0.244,0.871-0.365,1.422-0.365c0.692,0,1.258,0.217,1.697,0.65
		c0.439,0.435,0.658,1.089,0.658,1.964v5.121h-1.486v-4.981c0-0.518-0.141-0.892-0.422-1.124c-0.282-0.231-0.619-0.348-1.01-0.348
		c-0.484,0-0.859,0.148-1.129,0.445c-0.268,0.296-0.402,0.677-0.402,1.141v4.867h-1.481v-5.076c0-0.414-0.129-0.747-0.388-0.999
		c-0.258-0.252-0.595-0.378-1.01-0.378c-0.281,0-0.541,0.074-0.777,0.222c-0.237,0.147-0.428,0.352-0.572,0.613
		c-0.144,0.262-0.216,0.565-0.216,0.91v4.708H209.21z"/>
</g>
</svg>
