<?xml version="1.0" encoding="utf-8"?>
<!-- Generator: Adobe Illustrator 16.0.0, SVG Export Plug-In . SVG Version: 6.00 Build 0)  -->
<!DOCTYPE svg PUBLIC "-//W3C//DTD SVG 1.1//EN" "http://www.w3.org/Graphics/SVG/1.1/DTD/svg11.dtd">
<svg version="1.1" id="Capa_1" xmlns="http://www.w3.org/2000/svg" xmlns:xlink="http://www.w3.org/1999/xlink" x="0px" y="0px"
	 width="262.183px" height="15.63px" viewBox="-30.114 -71.086 262.183 15.63"
	 enable-background="new -30.114 -71.086 262.183 15.63" xml:space="preserve">
<text transform="matrix(1 0 0 1 -31 -145.9099)" font-family="'Inter-Regular'" font-size="16">gestion@todoreformastenerife.com</text>
<g enable-background="new    ">
	<path fill="#18181B" d="M-26.335-55.456c-0.595,0-1.115-0.076-1.563-0.229c-0.447-0.153-0.824-0.363-1.13-0.628
		c-0.307-0.266-0.545-0.563-0.716-0.893l0.83-0.545c0.125,0.22,0.292,0.436,0.502,0.647c0.21,0.212,0.485,0.389,0.824,0.528
		c0.339,0.141,0.756,0.211,1.252,0.211c0.773,0,1.397-0.193,1.873-0.58c0.475-0.387,0.713-0.986,0.713-1.801v-1.966h-0.091
		c-0.118,0.265-0.286,0.529-0.506,0.792c-0.22,0.264-0.506,0.482-0.861,0.656c-0.354,0.175-0.792,0.262-1.315,0.262
		c-0.697,0-1.315-0.173-1.855-0.518c-0.54-0.344-0.964-0.838-1.272-1.479c-0.309-0.643-0.463-1.408-0.463-2.299
		c0-0.882,0.151-1.659,0.452-2.329c0.301-0.671,0.723-1.193,1.264-1.568c0.542-0.375,1.172-0.563,1.892-0.563
		c0.534,0,0.978,0.094,1.33,0.281c0.353,0.188,0.636,0.42,0.85,0.696s0.381,0.545,0.503,0.807h0.102v-1.665h0.989v8.955
		c0,0.738-0.157,1.347-0.472,1.823c-0.314,0.478-0.742,0.831-1.284,1.06C-25.03-55.57-25.646-55.456-26.335-55.456z M-26.403-59.927
		c0.561,0,1.04-0.136,1.438-0.406c0.397-0.271,0.703-0.66,0.915-1.168c0.212-0.508,0.318-1.111,0.318-1.813
		c0-0.682-0.104-1.287-0.313-1.815c-0.208-0.528-0.511-0.945-0.906-1.25c-0.396-0.305-0.88-0.457-1.452-0.457
		c-0.583,0-1.076,0.157-1.478,0.472c-0.401,0.314-0.705,0.737-0.909,1.27c-0.205,0.532-0.307,1.126-0.307,1.781
		c0,0.667,0.104,1.255,0.313,1.764c0.208,0.51,0.513,0.907,0.915,1.193C-27.468-60.07-26.979-59.927-26.403-59.927z"/>
	<path fill="#18181B" d="M-16.523-58.728c-0.814,0-1.519-0.19-2.114-0.571c-0.595-0.38-1.054-0.908-1.378-1.585
		c-0.324-0.676-0.486-1.455-0.486-2.338c0-0.879,0.162-1.66,0.486-2.344s0.773-1.22,1.347-1.608
		c0.574-0.388,1.238-0.582,1.992-0.582c0.473,0,0.93,0.086,1.369,0.259c0.439,0.172,0.834,0.436,1.185,0.79
		c0.351,0.354,0.628,0.799,0.833,1.335s0.307,1.169,0.307,1.9v0.5h-6.818v-0.892h5.784c0-0.561-0.113-1.065-0.338-1.515
		c-0.226-0.449-0.538-0.804-0.938-1.065c-0.4-0.262-0.861-0.392-1.383-0.392c-0.553,0-1.04,0.147-1.46,0.442
		c-0.42,0.296-0.749,0.687-0.986,1.171c-0.237,0.485-0.357,1.016-0.361,1.591v0.534c0,0.693,0.12,1.298,0.361,1.815
		c0.241,0.517,0.583,0.918,1.025,1.201c0.443,0.284,0.968,0.427,1.574,0.427c0.413,0,0.775-0.064,1.088-0.193s0.576-0.302,0.79-0.52
		c0.214-0.218,0.375-0.458,0.485-0.719l0.96,0.313c-0.133,0.367-0.35,0.706-0.65,1.017c-0.301,0.311-0.676,0.56-1.125,0.747
		C-15.424-58.822-15.94-58.728-16.523-58.728z"/>
	<path fill="#18181B" d="M-4.898-65.722l-0.926,0.262c-0.091-0.262-0.22-0.498-0.387-0.711c-0.167-0.212-0.383-0.38-0.65-0.505
		s-0.598-0.188-0.992-0.188c-0.591,0-1.076,0.14-1.455,0.42c-0.378,0.28-0.568,0.643-0.568,1.085c0,0.375,0.129,0.68,0.389,0.912
		c0.259,0.233,0.66,0.418,1.202,0.554l1.318,0.324c0.731,0.178,1.279,0.46,1.645,0.847c0.366,0.387,0.548,0.871,0.548,1.454
		c0,0.493-0.136,0.931-0.409,1.313c-0.272,0.383-0.652,0.684-1.139,0.901s-1.05,0.326-1.69,0.326c-0.853,0-1.555-0.192-2.108-0.576
		c-0.553-0.385-0.907-0.94-1.063-1.668l0.972-0.238c0.125,0.519,0.37,0.911,0.736,1.176c0.366,0.266,0.848,0.397,1.446,0.397
		c0.67,0,1.206-0.15,1.608-0.451c0.401-0.302,0.602-0.68,0.602-1.134c0-0.353-0.117-0.648-0.352-0.89
		c-0.235-0.24-0.591-0.417-1.068-0.531l-1.426-0.341c-0.757-0.182-1.318-0.47-1.682-0.863s-0.545-0.883-0.545-1.466
		c0-0.481,0.131-0.904,0.392-1.27c0.261-0.366,0.621-0.653,1.08-0.861c0.458-0.208,0.981-0.313,1.568-0.313
		c0.799,0,1.438,0.181,1.918,0.543C-5.456-66.852-5.11-66.355-4.898-65.722z"/>
	<path fill="#18181B" d="M0.88-67.637v0.881h-4.165v-0.881H0.88z M-1.983-69.728h1.017v8.54c0,0.363,0.063,0.648,0.188,0.855
		c0.125,0.206,0.288,0.352,0.488,0.438c0.201,0.085,0.415,0.127,0.642,0.127c0.133,0,0.247-0.008,0.341-0.025
		c0.094-0.017,0.178-0.035,0.25-0.054l0.216,0.915c-0.099,0.037-0.22,0.072-0.364,0.104s-0.322,0.049-0.534,0.049
		c-0.371,0-0.728-0.082-1.071-0.244c-0.343-0.163-0.624-0.405-0.844-0.728s-0.33-0.722-0.33-1.199V-69.728z"/>
	<path fill="#18181B" d="M3.704-69.137c-0.208,0-0.387-0.07-0.534-0.213c-0.148-0.142-0.222-0.313-0.222-0.514
		c0-0.201,0.074-0.373,0.222-0.515c0.147-0.142,0.326-0.213,0.534-0.213c0.208,0,0.386,0.071,0.534,0.213
		c0.147,0.142,0.221,0.313,0.221,0.515c0,0.2-0.074,0.372-0.221,0.514C4.09-69.208,3.912-69.137,3.704-69.137z M3.187-58.91v-8.728
		h1.017v8.728H3.187z"/>
	<path fill="#18181B" d="M10.278-58.728c-0.753,0-1.419-0.191-1.997-0.573c-0.578-0.383-1.029-0.912-1.355-1.589
		c-0.326-0.676-0.489-1.457-0.489-2.344c0-0.894,0.163-1.681,0.489-2.36s0.777-1.21,1.355-1.591s1.244-0.571,1.997-0.571
		c0.754,0,1.419,0.191,1.995,0.574s1.027,0.913,1.355,1.591s0.492,1.464,0.492,2.357c0,0.887-0.163,1.668-0.489,2.344
		c-0.326,0.677-0.777,1.206-1.355,1.589C11.698-58.92,11.032-58.728,10.278-58.728z M10.278-59.654c0.606,0,1.12-0.163,1.54-0.489
		c0.42-0.325,0.739-0.759,0.958-1.301c0.218-0.542,0.327-1.138,0.327-1.79c0-0.651-0.109-1.25-0.327-1.795
		c-0.218-0.546-0.537-0.983-0.958-1.313c-0.42-0.33-0.934-0.494-1.54-0.494c-0.602,0-1.114,0.164-1.537,0.494
		c-0.422,0.329-0.743,0.767-0.96,1.313c-0.218,0.545-0.327,1.144-0.327,1.795c0,0.652,0.109,1.248,0.327,1.79
		s0.537,0.976,0.958,1.301C9.159-59.817,9.672-59.654,10.278-59.654z"/>
	<path fill="#18181B" d="M17.352-64.364v5.454H16.34v-8.728h0.983v1.369h0.091c0.205-0.446,0.523-0.806,0.958-1.076
		c0.434-0.271,0.97-0.406,1.61-0.406c0.587,0,1.104,0.122,1.548,0.366c0.445,0.244,0.792,0.604,1.04,1.077s0.372,1.055,0.372,1.744
		v5.653h-1.011v-5.591c0-0.716-0.2-1.282-0.6-1.699c-0.399-0.416-0.935-0.625-1.605-0.625c-0.458,0-0.866,0.099-1.222,0.296
		s-0.637,0.479-0.844,0.85C17.455-65.31,17.352-64.872,17.352-64.364z"/>
	<path fill="#18181B" d="M32.067-55.836c-1.083,0-2.057-0.167-2.92-0.5c-0.863-0.334-1.599-0.813-2.207-1.44
		s-1.074-1.382-1.398-2.265s-0.486-1.869-0.486-2.96c0-1.068,0.164-2.038,0.492-2.909s0.795-1.619,1.403-2.244
		s1.335-1.107,2.182-1.446s1.789-0.509,2.827-0.509c1.015,0,1.924,0.178,2.728,0.531c0.803,0.354,1.487,0.837,2.051,1.446
		c0.564,0.61,0.995,1.304,1.292,2.082c0.297,0.779,0.446,1.593,0.446,2.44c0,0.538-0.041,1.068-0.122,1.591
		c-0.082,0.523-0.221,0.997-0.417,1.421c-0.197,0.424-0.47,0.763-0.818,1.015s-0.79,0.377-1.324,0.377
		c-0.28,0-0.556-0.046-0.827-0.139c-0.271-0.093-0.502-0.246-0.693-0.46s-0.302-0.501-0.333-0.861h-0.057
		c-0.121,0.272-0.292,0.522-0.511,0.747c-0.22,0.226-0.49,0.404-0.81,0.537c-0.32,0.133-0.69,0.193-1.111,0.182
		c-0.478-0.011-0.906-0.117-1.287-0.318c-0.381-0.2-0.705-0.475-0.972-0.823s-0.471-0.753-0.611-1.213
		c-0.14-0.461-0.21-0.958-0.21-1.492c0-0.515,0.079-0.99,0.236-1.426s0.375-0.816,0.653-1.142c0.278-0.326,0.605-0.586,0.98-0.779
		c0.375-0.192,0.778-0.305,1.21-0.335c0.386-0.026,0.742,0.011,1.068,0.111c0.326,0.1,0.603,0.245,0.83,0.435
		c0.228,0.189,0.39,0.403,0.489,0.642h0.057v-1.028h0.926v5.268c0,0.397,0.079,0.707,0.236,0.929s0.406,0.332,0.747,0.332
		c0.413,0,0.749-0.135,1.009-0.406c0.259-0.271,0.45-0.672,0.571-1.204s0.182-1.188,0.182-1.969c0-0.591-0.082-1.164-0.247-1.719
		c-0.165-0.555-0.404-1.07-0.719-1.546s-0.701-0.892-1.159-1.25c-0.458-0.357-0.982-0.637-1.571-0.838s-1.242-0.301-1.958-0.301
		c-0.886,0-1.691,0.149-2.415,0.448c-0.724,0.3-1.346,0.728-1.867,1.284c-0.521,0.557-0.921,1.221-1.202,1.991
		c-0.28,0.771-0.42,1.63-0.42,2.577c0,0.958,0.14,1.824,0.42,2.597s0.685,1.434,1.213,1.982c0.528,0.55,1.167,0.972,1.917,1.268
		c0.75,0.295,1.595,0.443,2.534,0.443c0.417,0,0.827-0.041,1.23-0.122c0.403-0.082,0.771-0.182,1.102-0.299s0.6-0.232,0.804-0.347
		l0.29,0.796c-0.28,0.151-0.613,0.29-0.997,0.415s-0.79,0.223-1.216,0.295S32.469-55.836,32.067-55.836z M31.573-60.092
		c0.515,0,0.949-0.119,1.301-0.358c0.352-0.238,0.618-0.581,0.798-1.028c0.18-0.446,0.27-0.984,0.27-1.613
		c0-0.633-0.096-1.153-0.287-1.563c-0.191-0.409-0.462-0.713-0.813-0.912c-0.351-0.199-0.764-0.298-1.242-0.298
		c-0.462,0-0.866,0.126-1.213,0.377c-0.347,0.252-0.618,0.589-0.813,1.009c-0.195,0.421-0.292,0.883-0.292,1.387
		c0,0.534,0.086,1.028,0.258,1.482c0.172,0.455,0.428,0.821,0.767,1.1S31.069-60.092,31.573-60.092z"/>
	<path fill="#18181B" d="M44.028-67.637v0.881h-4.165v-0.881H44.028z M41.164-69.728h1.017v8.54c0,0.363,0.063,0.648,0.188,0.855
		c0.125,0.206,0.288,0.352,0.488,0.438c0.201,0.085,0.415,0.127,0.642,0.127c0.133,0,0.247-0.008,0.341-0.025
		c0.094-0.017,0.178-0.035,0.25-0.054l0.216,0.915c-0.099,0.037-0.22,0.072-0.364,0.104s-0.322,0.049-0.534,0.049
		c-0.371,0-0.728-0.082-1.071-0.244c-0.343-0.163-0.624-0.405-0.844-0.728s-0.33-0.722-0.33-1.199V-69.728z"/>
	<path fill="#18181B" d="M49.624-58.728c-0.753,0-1.419-0.191-1.997-0.573c-0.578-0.383-1.029-0.912-1.355-1.589
		c-0.326-0.676-0.489-1.457-0.489-2.344c0-0.894,0.163-1.681,0.489-2.36s0.777-1.21,1.355-1.591s1.244-0.571,1.997-0.571
		c0.754,0,1.419,0.191,1.995,0.574s1.027,0.913,1.355,1.591s0.492,1.464,0.492,2.357c0,0.887-0.163,1.668-0.489,2.344
		c-0.326,0.677-0.777,1.206-1.355,1.589C51.043-58.92,50.377-58.728,49.624-58.728z M49.624-59.654c0.606,0,1.12-0.163,1.54-0.489
		c0.42-0.325,0.739-0.759,0.958-1.301c0.218-0.542,0.327-1.138,0.327-1.79c0-0.651-0.109-1.25-0.327-1.795
		c-0.218-0.546-0.537-0.983-0.958-1.313c-0.42-0.33-0.934-0.494-1.54-0.494c-0.602,0-1.114,0.164-1.537,0.494
		c-0.422,0.329-0.743,0.767-0.96,1.313c-0.218,0.545-0.327,1.144-0.327,1.795c0,0.652,0.109,1.248,0.327,1.79
		s0.537,0.976,0.958,1.301C48.504-59.817,49.018-59.654,49.624-59.654z"/>
	<path fill="#18181B" d="M58.828-58.728c-0.716,0-1.343-0.189-1.88-0.568c-0.538-0.378-0.958-0.907-1.259-1.585
		c-0.301-0.678-0.452-1.468-0.452-2.369c0-0.897,0.151-1.685,0.452-2.361c0.301-0.676,0.723-1.202,1.264-1.579
		c0.542-0.377,1.172-0.565,1.892-0.565c0.53,0,0.972,0.094,1.324,0.281c0.352,0.188,0.634,0.42,0.846,0.696
		c0.212,0.276,0.377,0.545,0.495,0.807h0.091v-4.574h1.017v11.637h-0.989v-1.619H61.51c-0.118,0.265-0.284,0.537-0.5,0.815
		s-0.501,0.512-0.855,0.701C59.801-58.823,59.358-58.728,58.828-58.728z M58.948-59.654c0.564,0,1.045-0.154,1.443-0.463
		c0.398-0.309,0.702-0.735,0.912-1.278c0.21-0.544,0.315-1.168,0.315-1.873c0-0.696-0.104-1.313-0.313-1.849
		c-0.208-0.536-0.511-0.957-0.909-1.262c-0.397-0.305-0.881-0.457-1.449-0.457c-0.583,0-1.075,0.158-1.475,0.474
		c-0.399,0.316-0.703,0.744-0.909,1.281c-0.207,0.538-0.31,1.143-0.31,1.813c0,0.679,0.104,1.29,0.313,1.836
		c0.208,0.545,0.512,0.978,0.912,1.298C57.878-59.814,58.368-59.654,58.948-59.654z"/>
	<path fill="#18181B" d="M68.891-58.728c-0.753,0-1.419-0.191-1.997-0.573c-0.578-0.383-1.029-0.912-1.355-1.589
		c-0.326-0.676-0.489-1.457-0.489-2.344c0-0.894,0.163-1.681,0.489-2.36s0.777-1.21,1.355-1.591s1.244-0.571,1.997-0.571
		c0.754,0,1.419,0.191,1.995,0.574s1.027,0.913,1.355,1.591s0.492,1.464,0.492,2.357c0,0.887-0.163,1.668-0.489,2.344
		c-0.326,0.677-0.777,1.206-1.355,1.589C70.311-58.92,69.645-58.728,68.891-58.728z M68.891-59.654c0.606,0,1.12-0.163,1.54-0.489
		c0.42-0.325,0.739-0.759,0.958-1.301c0.218-0.542,0.327-1.138,0.327-1.79c0-0.651-0.109-1.25-0.327-1.795
		c-0.218-0.546-0.537-0.983-0.958-1.313c-0.42-0.33-0.934-0.494-1.54-0.494c-0.602,0-1.114,0.164-1.537,0.494
		c-0.422,0.329-0.743,0.767-0.96,1.313c-0.218,0.545-0.327,1.144-0.327,1.795c0,0.652,0.109,1.248,0.327,1.79
		s0.537,0.976,0.958,1.301C67.771-59.817,68.285-59.654,68.891-59.654z"/>
	<path fill="#18181B" d="M74.954-58.91v-8.728h0.983v1.341h0.074c0.174-0.439,0.478-0.794,0.912-1.065
		c0.434-0.271,0.925-0.406,1.474-0.406c0.083,0,0.176,0.002,0.278,0.006c0.103,0.004,0.188,0.008,0.256,0.012v1.028
		c-0.045-0.008-0.125-0.019-0.239-0.034c-0.113-0.015-0.237-0.022-0.369-0.022c-0.455,0-0.859,0.096-1.213,0.287
		c-0.354,0.191-0.634,0.455-0.838,0.792c-0.205,0.338-0.307,0.722-0.307,1.153v5.637H74.954z"/>
	<path fill="#18181B" d="M83.914-58.728c-0.814,0-1.519-0.19-2.114-0.571c-0.595-0.38-1.054-0.908-1.378-1.585
		c-0.324-0.676-0.486-1.455-0.486-2.338c0-0.879,0.162-1.66,0.486-2.344s0.773-1.22,1.347-1.608
		c0.574-0.388,1.238-0.582,1.992-0.582c0.473,0,0.93,0.086,1.369,0.259c0.439,0.172,0.834,0.436,1.185,0.79
		c0.351,0.354,0.628,0.799,0.833,1.335s0.307,1.169,0.307,1.9v0.5h-6.818v-0.892h5.784c0-0.561-0.113-1.065-0.338-1.515
		c-0.226-0.449-0.538-0.804-0.938-1.065c-0.4-0.262-0.861-0.392-1.383-0.392c-0.553,0-1.04,0.147-1.46,0.442
		c-0.42,0.296-0.749,0.687-0.986,1.171c-0.237,0.485-0.357,1.016-0.361,1.591v0.534c0,0.693,0.12,1.298,0.361,1.815
		c0.241,0.517,0.583,0.918,1.025,1.201c0.443,0.284,0.968,0.427,1.574,0.427c0.413,0,0.775-0.064,1.088-0.193s0.576-0.302,0.79-0.52
		c0.214-0.218,0.375-0.458,0.485-0.719l0.96,0.313c-0.133,0.367-0.35,0.706-0.65,1.017c-0.301,0.311-0.676,0.56-1.125,0.747
		C85.013-58.822,84.497-58.728,83.914-58.728z"/>
	<path fill="#18181B" d="M93.265-67.637v0.881h-4.29v-0.881H93.265z M90.316-58.91v-10.006c0-0.47,0.109-0.865,0.327-1.188
		c0.218-0.321,0.502-0.566,0.855-0.732c0.352-0.167,0.725-0.25,1.119-0.25c0.265,0,0.486,0.021,0.662,0.065
		c0.176,0.043,0.315,0.086,0.417,0.127l-0.295,0.887c-0.076-0.022-0.168-0.049-0.278-0.079s-0.248-0.046-0.415-0.046
		c-0.439,0-0.778,0.123-1.017,0.369c-0.238,0.246-0.358,0.599-0.358,1.057l-0.005,9.796H90.316z"/>
	<path fill="#18181B" d="M98.316-58.728c-0.753,0-1.419-0.191-1.997-0.573c-0.578-0.383-1.029-0.912-1.355-1.589
		c-0.326-0.676-0.489-1.457-0.489-2.344c0-0.894,0.163-1.681,0.489-2.36s0.777-1.21,1.355-1.591s1.244-0.571,1.997-0.571
		c0.754,0,1.419,0.191,1.995,0.574s1.027,0.913,1.355,1.591s0.492,1.464,0.492,2.357c0,0.887-0.163,1.668-0.489,2.344
		c-0.326,0.677-0.777,1.206-1.355,1.589C99.736-58.92,99.07-58.728,98.316-58.728z M98.316-59.654c0.606,0,1.12-0.163,1.54-0.489
		c0.42-0.325,0.739-0.759,0.958-1.301c0.218-0.542,0.327-1.138,0.327-1.79c0-0.651-0.109-1.25-0.327-1.795
		c-0.218-0.546-0.537-0.983-0.958-1.313c-0.42-0.33-0.934-0.494-1.54-0.494c-0.602,0-1.114,0.164-1.537,0.494
		c-0.422,0.329-0.743,0.767-0.96,1.313c-0.218,0.545-0.327,1.144-0.327,1.795c0,0.652,0.109,1.248,0.327,1.79
		s0.537,0.976,0.958,1.301C97.197-59.817,97.71-59.654,98.316-59.654z"/>
	<path fill="#18181B" d="M104.379-58.91v-8.728h0.983v1.341h0.074c0.174-0.439,0.478-0.794,0.912-1.065
		c0.434-0.271,0.925-0.406,1.474-0.406c0.083,0,0.176,0.002,0.278,0.006c0.103,0.004,0.188,0.008,0.256,0.012v1.028
		c-0.045-0.008-0.125-0.019-0.239-0.034c-0.113-0.015-0.237-0.022-0.369-0.022c-0.455,0-0.859,0.096-1.213,0.287
		c-0.354,0.191-0.634,0.455-0.838,0.792c-0.205,0.338-0.307,0.722-0.307,1.153v5.637H104.379z"/>
	<path fill="#18181B" d="M110.083-58.91v-8.728h0.983v1.341h0.091c0.174-0.45,0.465-0.806,0.872-1.065
		c0.407-0.259,0.897-0.389,1.469-0.389c0.602,0,1.098,0.141,1.486,0.423s0.679,0.67,0.872,1.162h0.074
		c0.197-0.484,0.518-0.87,0.963-1.156c0.445-0.286,0.986-0.429,1.622-0.429c0.81,0,1.451,0.255,1.92,0.764
		c0.47,0.51,0.704,1.253,0.704,2.23v5.847h-1.011v-5.847c0-0.689-0.177-1.206-0.528-1.551c-0.353-0.345-0.816-0.518-1.392-0.518
		c-0.667,0-1.18,0.205-1.54,0.614s-0.54,0.928-0.54,1.557v5.744h-1.034v-5.938c0-0.591-0.165-1.068-0.495-1.432
		c-0.329-0.364-0.793-0.546-1.392-0.546c-0.402,0-0.763,0.099-1.083,0.296c-0.32,0.197-0.572,0.471-0.756,0.821
		c-0.184,0.35-0.275,0.752-0.275,1.207v5.591H110.083z"/>
	<path fill="#18181B" d="M126.247-58.711c-0.526,0-1.008-0.104-1.443-0.31c-0.436-0.207-0.781-0.506-1.039-0.898
		c-0.258-0.392-0.387-0.868-0.387-1.429c0-0.432,0.082-0.796,0.244-1.091c0.163-0.296,0.395-0.538,0.693-0.728
		s0.653-0.339,1.063-0.448c0.409-0.11,0.859-0.195,1.353-0.256c0.488-0.061,0.902-0.114,1.241-0.159
		c0.339-0.046,0.598-0.117,0.775-0.216s0.268-0.258,0.268-0.478v-0.204c0-0.595-0.178-1.063-0.531-1.406
		c-0.354-0.343-0.863-0.515-1.525-0.515c-0.629,0-1.142,0.139-1.537,0.415c-0.396,0.276-0.674,0.602-0.832,0.977l-0.961-0.346
		c0.197-0.478,0.47-0.859,0.818-1.146c0.348-0.286,0.738-0.492,1.17-0.619s0.869-0.19,1.313-0.19c0.334,0,0.682,0.044,1.043,0.131
		s0.697,0.237,1.009,0.451c0.311,0.215,0.563,0.512,0.755,0.893c0.193,0.381,0.291,0.862,0.291,1.446v5.926h-1.012v-1.381h-0.063
		c-0.121,0.258-0.301,0.508-0.54,0.75s-0.538,0.441-0.897,0.597C127.154-58.789,126.731-58.711,126.247-58.711z M126.384-59.637
		c0.537,0,1.004-0.119,1.397-0.357c0.394-0.239,0.698-0.556,0.912-0.952c0.214-0.396,0.321-0.832,0.321-1.31v-1.262
		c-0.076,0.072-0.202,0.137-0.378,0.193c-0.177,0.057-0.379,0.107-0.608,0.15c-0.229,0.044-0.457,0.081-0.685,0.111
		s-0.432,0.057-0.613,0.079c-0.493,0.061-0.913,0.155-1.262,0.284s-0.615,0.307-0.801,0.531c-0.187,0.226-0.278,0.515-0.278,0.867
		c0,0.53,0.189,0.939,0.568,1.229S125.812-59.637,126.384-59.637z"/>
	<path fill="#18181B" d="M138.577-65.722l-0.926,0.262c-0.092-0.262-0.221-0.498-0.387-0.711c-0.167-0.212-0.384-0.38-0.65-0.505
		c-0.268-0.125-0.598-0.188-0.992-0.188c-0.591,0-1.076,0.14-1.455,0.42c-0.378,0.28-0.567,0.643-0.567,1.085
		c0,0.375,0.13,0.68,0.39,0.912c0.259,0.233,0.66,0.418,1.201,0.554l1.318,0.324c0.73,0.178,1.279,0.46,1.645,0.847
		s0.549,0.871,0.549,1.454c0,0.493-0.137,0.931-0.41,1.313c-0.271,0.383-0.652,0.684-1.139,0.901s-1.051,0.326-1.689,0.326
		c-0.854,0-1.556-0.192-2.109-0.576c-0.553-0.385-0.906-0.94-1.063-1.668l0.973-0.238c0.125,0.519,0.369,0.911,0.735,1.176
		c0.366,0.266,0.848,0.397,1.446,0.397c0.67,0,1.206-0.15,1.607-0.451c0.402-0.302,0.603-0.68,0.603-1.134
		c0-0.353-0.117-0.648-0.353-0.89c-0.234-0.24-0.59-0.417-1.068-0.531l-1.426-0.341c-0.758-0.182-1.318-0.47-1.682-0.863
		s-0.545-0.883-0.545-1.466c0-0.481,0.131-0.904,0.392-1.27c0.261-0.366,0.621-0.653,1.079-0.861
		c0.459-0.208,0.981-0.313,1.568-0.313c0.799,0,1.438,0.181,1.918,0.543C138.019-66.852,138.364-66.355,138.577-65.722z"/>
	<path fill="#18181B" d="M144.355-67.637v0.881h-4.165v-0.881H144.355z M141.491-69.728h1.018v8.54c0,0.363,0.063,0.648,0.188,0.855
		c0.125,0.206,0.287,0.352,0.488,0.438c0.201,0.085,0.415,0.127,0.643,0.127c0.133,0,0.246-0.008,0.341-0.025
		c0.095-0.017,0.178-0.035,0.25-0.054l0.216,0.915c-0.099,0.037-0.22,0.072-0.363,0.104c-0.145,0.032-0.322,0.049-0.535,0.049
		c-0.371,0-0.728-0.082-1.07-0.244c-0.343-0.163-0.624-0.405-0.844-0.728s-0.33-0.722-0.33-1.199V-69.728z"/>
	<path fill="#18181B" d="M150.089-58.728c-0.814,0-1.52-0.19-2.114-0.571c-0.595-0.38-1.054-0.908-1.378-1.585
		c-0.324-0.676-0.486-1.455-0.486-2.338c0-0.879,0.162-1.66,0.486-2.344s0.773-1.22,1.347-1.608
		c0.573-0.388,1.237-0.582,1.991-0.582c0.474,0,0.93,0.086,1.369,0.259c0.439,0.172,0.834,0.436,1.186,0.79
		c0.35,0.354,0.627,0.799,0.832,1.335s0.307,1.169,0.307,1.9v0.5h-6.818v-0.892h5.784c0-0.561-0.112-1.065-0.338-1.515
		s-0.538-0.804-0.938-1.065s-0.86-0.392-1.384-0.392c-0.553,0-1.039,0.147-1.46,0.442c-0.421,0.296-0.749,0.687-0.985,1.171
		c-0.237,0.485-0.357,1.016-0.361,1.591v0.534c0,0.693,0.12,1.298,0.361,1.815c0.24,0.517,0.582,0.918,1.025,1.201
		c0.443,0.284,0.967,0.427,1.574,0.427c0.412,0,0.775-0.064,1.088-0.193s0.575-0.302,0.789-0.52
		c0.215-0.218,0.376-0.458,0.486-0.719l0.96,0.313c-0.133,0.367-0.35,0.706-0.65,1.017c-0.302,0.311-0.677,0.56-1.125,0.747
		C151.188-58.822,150.671-58.728,150.089-58.728z"/>
	<path fill="#18181B" d="M156.86-64.364v5.454h-1.011v-8.728h0.983v1.369h0.09c0.205-0.446,0.523-0.806,0.958-1.076
		c0.434-0.271,0.97-0.406,1.61-0.406c0.588,0,1.104,0.122,1.549,0.366s0.791,0.604,1.039,1.077s0.373,1.055,0.373,1.744v5.653
		h-1.012v-5.591c0-0.716-0.2-1.282-0.6-1.699c-0.399-0.416-0.935-0.625-1.605-0.625c-0.458,0-0.865,0.099-1.221,0.296
		c-0.356,0.197-0.638,0.479-0.844,0.85C156.964-65.31,156.86-64.872,156.86-64.364z"/>
	<path fill="#18181B" d="M168.651-58.728c-0.814,0-1.52-0.19-2.114-0.571c-0.595-0.38-1.054-0.908-1.378-1.585
		c-0.324-0.676-0.486-1.455-0.486-2.338c0-0.879,0.162-1.66,0.486-2.344s0.773-1.22,1.347-1.608
		c0.573-0.388,1.237-0.582,1.991-0.582c0.474,0,0.93,0.086,1.369,0.259c0.439,0.172,0.834,0.436,1.186,0.79
		c0.35,0.354,0.627,0.799,0.832,1.335s0.307,1.169,0.307,1.9v0.5h-6.818v-0.892h5.784c0-0.561-0.112-1.065-0.338-1.515
		s-0.538-0.804-0.938-1.065s-0.86-0.392-1.384-0.392c-0.553,0-1.039,0.147-1.46,0.442c-0.421,0.296-0.749,0.687-0.985,1.171
		c-0.237,0.485-0.357,1.016-0.361,1.591v0.534c0,0.693,0.12,1.298,0.361,1.815c0.24,0.517,0.582,0.918,1.025,1.201
		c0.443,0.284,0.967,0.427,1.574,0.427c0.412,0,0.775-0.064,1.088-0.193s0.575-0.302,0.789-0.52
		c0.215-0.218,0.376-0.458,0.486-0.719l0.96,0.313c-0.133,0.367-0.35,0.706-0.65,1.017c-0.302,0.311-0.677,0.56-1.125,0.747
		C169.75-58.822,169.233-58.728,168.651-58.728z"/>
	<path fill="#18181B" d="M174.411-58.91v-8.728h0.983v1.341h0.073c0.175-0.439,0.479-0.794,0.912-1.065
		c0.434-0.271,0.926-0.406,1.475-0.406c0.084,0,0.176,0.002,0.278,0.006s0.188,0.008,0.256,0.012v1.028
		c-0.046-0.008-0.125-0.019-0.239-0.034c-0.113-0.015-0.236-0.022-0.369-0.022c-0.454,0-0.858,0.096-1.213,0.287
		c-0.354,0.191-0.633,0.455-0.838,0.792c-0.205,0.338-0.307,0.722-0.307,1.153v5.637H174.411z"/>
	<path fill="#18181B" d="M180.645-69.137c-0.208,0-0.387-0.07-0.534-0.213c-0.148-0.142-0.222-0.313-0.222-0.514
		c0-0.201,0.073-0.373,0.222-0.515c0.147-0.142,0.326-0.213,0.534-0.213s0.386,0.071,0.534,0.213
		c0.147,0.142,0.221,0.313,0.221,0.515c0,0.2-0.073,0.372-0.221,0.514C181.03-69.208,180.853-69.137,180.645-69.137z M180.128-58.91
		v-8.728h1.017v8.728H180.128z"/>
	<path fill="#18181B" d="M187.417-67.637v0.881h-4.289v-0.881H187.417z M184.468-58.91v-10.006c0-0.47,0.109-0.865,0.328-1.188
		c0.217-0.321,0.502-0.566,0.854-0.732c0.353-0.167,0.726-0.25,1.119-0.25c0.265,0,0.485,0.021,0.662,0.065
		c0.177,0.043,0.315,0.086,0.417,0.127l-0.295,0.887c-0.076-0.022-0.168-0.049-0.278-0.079s-0.248-0.046-0.415-0.046
		c-0.439,0-0.778,0.123-1.018,0.369c-0.238,0.246-0.357,0.599-0.357,1.057l-0.006,9.796H184.468z"/>
	<path fill="#18181B" d="M192.604-58.728c-0.814,0-1.519-0.19-2.113-0.571c-0.595-0.38-1.055-0.908-1.378-1.585
		c-0.323-0.676-0.485-1.455-0.485-2.338c0-0.879,0.162-1.66,0.485-2.344s0.772-1.22,1.347-1.608
		c0.574-0.388,1.238-0.582,1.992-0.582c0.473,0,0.93,0.086,1.369,0.259c0.439,0.172,0.834,0.436,1.184,0.79
		c0.352,0.354,0.629,0.799,0.833,1.335s0.307,1.169,0.307,1.9v0.5h-6.817v-0.892h5.783c0-0.561-0.113-1.065-0.338-1.515
		c-0.226-0.449-0.538-0.804-0.938-1.065c-0.4-0.262-0.861-0.392-1.383-0.392c-0.554,0-1.041,0.147-1.461,0.442
		c-0.42,0.296-0.749,0.687-0.986,1.171c-0.236,0.485-0.356,1.016-0.36,1.591v0.534c0,0.693,0.12,1.298,0.36,1.815
		c0.241,0.517,0.583,0.918,1.025,1.201c0.443,0.284,0.969,0.427,1.574,0.427c0.413,0,0.775-0.064,1.088-0.193
		s0.576-0.302,0.791-0.52c0.213-0.218,0.375-0.458,0.484-0.719l0.961,0.313c-0.133,0.367-0.35,0.706-0.65,1.017
		s-0.676,0.56-1.125,0.747S193.188-58.728,192.604-58.728z"/>
	<path fill="#18181B" d="M199.173-58.825c-0.225,0-0.416-0.08-0.577-0.241s-0.241-0.354-0.241-0.577c0-0.227,0.08-0.42,0.241-0.579
		s0.353-0.238,0.577-0.238c0.227,0,0.42,0.079,0.579,0.238s0.239,0.353,0.239,0.579c0,0.148-0.037,0.284-0.111,0.409
		s-0.172,0.225-0.295,0.299C199.461-58.862,199.323-58.825,199.173-58.825z"/>
	<path fill="#18181B" d="M206.064-58.728c-0.78,0-1.459-0.195-2.036-0.585c-0.578-0.391-1.026-0.924-1.344-1.603
		c-0.318-0.678-0.479-1.45-0.479-2.318c0-0.875,0.162-1.653,0.486-2.335s0.773-1.217,1.35-1.605
		c0.576-0.388,1.244-0.582,2.006-0.582c0.583,0,1.111,0.113,1.585,0.338c0.474,0.226,0.864,0.542,1.173,0.949
		s0.504,0.882,0.583,1.423h-1.022c-0.106-0.492-0.361-0.913-0.765-1.264s-0.915-0.525-1.537-0.525c-0.557,0-1.05,0.15-1.478,0.451
		c-0.428,0.302-0.762,0.72-1.002,1.256c-0.241,0.536-0.361,1.156-0.361,1.86c0,0.709,0.117,1.335,0.353,1.878
		c0.235,0.544,0.565,0.969,0.991,1.276c0.426,0.307,0.926,0.46,1.497,0.46c0.387,0,0.739-0.073,1.06-0.219s0.59-0.354,0.807-0.622
		c0.219-0.27,0.365-0.589,0.441-0.961h1.021c-0.075,0.527-0.262,0.996-0.559,1.406c-0.298,0.411-0.682,0.734-1.154,0.969
		C207.21-58.845,206.671-58.728,206.064-58.728z"/>
	<path fill="#18181B" d="M214.95-58.728c-0.753,0-1.419-0.191-1.996-0.573c-0.578-0.383-1.029-0.912-1.355-1.589
		c-0.326-0.676-0.488-1.457-0.488-2.344c0-0.894,0.162-1.681,0.488-2.36s0.777-1.21,1.355-1.591
		c0.577-0.381,1.243-0.571,1.996-0.571c0.754,0,1.42,0.191,1.995,0.574s1.027,0.913,1.354,1.591
		c0.328,0.678,0.492,1.464,0.492,2.357c0,0.887-0.163,1.668-0.488,2.344c-0.326,0.677-0.777,1.206-1.355,1.589
		C216.37-58.92,215.704-58.728,214.95-58.728z M214.95-59.654c0.607,0,1.12-0.163,1.541-0.489c0.42-0.325,0.738-0.759,0.957-1.301
		c0.218-0.542,0.326-1.138,0.326-1.79c0-0.651-0.108-1.25-0.326-1.795c-0.219-0.546-0.537-0.983-0.957-1.313
		c-0.421-0.33-0.934-0.494-1.541-0.494c-0.602,0-1.113,0.164-1.536,0.494c-0.423,0.329-0.743,0.767-0.96,1.313
		c-0.219,0.545-0.327,1.144-0.327,1.795c0,0.652,0.108,1.248,0.327,1.79c0.217,0.542,0.537,0.976,0.957,1.301
		C213.831-59.817,214.345-59.654,214.95-59.654z"/>
	<path fill="#18181B" d="M221.013-58.91v-8.728h0.983v1.341h0.091c0.174-0.45,0.465-0.806,0.872-1.065
		c0.407-0.259,0.897-0.389,1.469-0.389c0.603,0,1.098,0.141,1.485,0.423c0.389,0.282,0.68,0.67,0.873,1.162h0.073
		c0.197-0.484,0.519-0.87,0.964-1.156c0.444-0.286,0.985-0.429,1.621-0.429c0.811,0,1.451,0.255,1.921,0.764
		c0.47,0.51,0.704,1.253,0.704,2.23v5.847h-1.011v-5.847c0-0.689-0.177-1.206-0.528-1.551c-0.353-0.345-0.816-0.518-1.393-0.518
		c-0.666,0-1.18,0.205-1.539,0.614c-0.36,0.409-0.54,0.928-0.54,1.557v5.744h-1.034v-5.938c0-0.591-0.165-1.068-0.494-1.432
		c-0.33-0.364-0.794-0.546-1.393-0.546c-0.401,0-0.762,0.099-1.082,0.296s-0.572,0.471-0.756,0.821
		c-0.184,0.35-0.275,0.752-0.275,1.207v5.591H221.013z"/>
</g>
</svg>
