<?xml version="1.0" encoding="utf-8"?>
<!-- Generator: Adobe Illustrator 16.0.0, SVG Export Plug-In . SVG Version: 6.00 Build 0)  -->
<!DOCTYPE svg PUBLIC "-//W3C//DTD SVG 1.1//EN" "http://www.w3.org/Graphics/SVG/1.1/DTD/svg11.dtd">
<svg version="1.1" id="Capa_1" xmlns="http://www.w3.org/2000/svg" xmlns:xlink="http://www.w3.org/1999/xlink" x="0px" y="0px"
	 width="40px" height="40px" viewBox="2.677 2.677 40 40" enable-background="new 2.677 2.677 40 40" xml:space="preserve">
<circle fill="#FF3600" cx="22.677" cy="22.677" r="20"/>
<path fill="#FFFFFF" d="M15.033,13.315c0.854-0.851,2.234-0.85,3.085,0.002c0.063,0.063,0.124,0.13,0.178,0.201l2.244,2.883
	c0.412,0.528,0.557,1.218,0.393,1.867l-0.684,2.738c-0.071,0.288,0.012,0.593,0.222,0.804l3.073,3.071
	c0.21,0.21,0.516,0.295,0.805,0.222l2.735-0.684c0.651-0.161,1.34-0.017,1.868,0.394l2.883,2.243
	c1.036,0.806,1.131,2.338,0.203,3.265l-1.292,1.291c-0.925,0.926-2.307,1.332-3.596,0.879c-3.299-1.162-6.293-3.049-8.764-5.524
	c-2.476-2.471-4.363-5.464-5.525-8.764c-0.452-1.287-0.046-2.671,0.879-3.596L15.033,13.315z"/>
</svg>
