<?xml version="1.0" encoding="utf-8"?>
<!-- Generator: Adobe Illustrator 16.0.0, SVG Export Plug-In . SVG Version: 6.00 Build 0)  -->
<!DOCTYPE svg PUBLIC "-//W3C//DTD SVG 1.1//EN" "http://www.w3.org/Graphics/SVG/1.1/DTD/svg11.dtd">
<svg version="1.1" id="Capa_1" xmlns="http://www.w3.org/2000/svg" xmlns:xlink="http://www.w3.org/1999/xlink" x="0px" y="0px"
	 width="138.281px" height="50px" viewBox="-36.352 -52.75 138.281 50" enable-background="new -36.352 -52.75 138.281 50"
	 xml:space="preserve">
<g>
	
		<linearGradient id="SVGID_1_" gradientUnits="userSpaceOnUse" x1="-39.9243" y1="537.9102" x2="-39.9243" y2="508.9273" gradientTransform="matrix(1 0 0 1 118.3203 -563.1992)">
		<stop  offset="0" style="stop-color:#1D4ED8"/>
		<stop  offset="1" style="stop-color:#3B82F6"/>
	</linearGradient>
	<path fill="url(#SVGID_1_)" d="M67.626-33.426c1.161,0.181,1.09-0.04,2.082,0.553c0.601,0.364,1.001,0.792,1.368,1.349l0.664,4.68
		c0.26-0.142,0.744-0.521,0.997-0.711c0.496-0.373,0.848-0.255,1.489-0.387c0.502-0.104,0.892-0.25,1.382-0.397
		c0.506-0.15,2.601-0.338,3.17-0.487c0.42-0.109,0.677-0.359,1.317-0.544c1.806-0.52,0.379,0.166,2.483-1.268v-12.779l6.587-0.026
		l-5.281-2.3c-5.168-2.286-11.006-4.816-16.26-6.974L67.626-33.426L67.626-33.426z"/>
	
		<linearGradient id="SVGID_2_" gradientUnits="userSpaceOnUse" x1="-139.7354" y1="539.8691" x2="-25.668" y2="539.8691" gradientTransform="matrix(1 0 0 1 118.3203 -563.1992)">
		<stop  offset="0" style="stop-color:#FF3400"/>
		<stop  offset="1" style="stop-color:#F97316"/>
	</linearGradient>
	<path fill="url(#SVGID_2_)" d="M-14.381-20.687c4.815,0.807,9.54,1.737,14.458,2.424c2.456,0.344,4.911,0.614,7.386,0.923
		c14.561,1.812,32.461,1.411,47.107-0.981c9.256-1.51,17.853-3.811,26.48-7.059c2.041-0.765,4.019-1.571,6.07-2.358
		c1.01-0.388,1.944-0.854,2.948-1.264c0.503-0.207,0.963-0.432,1.438-0.627l0.642-0.203c0.262-0.128,0.426-0.236,0.503-0.617
		c-1.907,0.732-4.002,1.583-5.899,2.253c-1.999,0.708-3.954,1.345-6.034,2.019c-12.552,4.06-28.701,6.06-41.944,6.174
		c-13.536,0.12-25.065-0.566-38.31-1.852c-0.625-0.061-1.252-0.119-1.873-0.18c-1.715-0.169-3.132,0.195-3.741,0.18
		c-0.336-0.009-0.63-0.092-0.934-0.092c-0.281,0-0.54,0.075-0.84,0.089l-9.289-0.072l-3.629,0.068
		c-0.954-0.047-1.108-0.349-1.575-0.216L-14.381-20.687z"/>
	<g>
		<g>
			
				<linearGradient id="SVGID_3_" gradientUnits="userSpaceOnUse" x1="-160.7427" y1="522.4199" x2="-57.9438" y2="522.4199" gradientTransform="matrix(1 0 0 1 125.5952 -561.0801)">
				<stop  offset="0" style="stop-color:#FF3400"/>
				<stop  offset="1" style="stop-color:#F97316"/>
			</linearGradient>
			<path fill="url(#SVGID_3_)" d="M52.502-40.117h1.602c0.482,0,0.876-0.395,0.876-0.876v-1.757c0-0.481-0.395-0.875-0.876-0.875
				h-1.602c-0.481,0-0.876,0.394-0.876,0.875v1.757C51.625-40.51,52.021-40.117,52.502-40.117z M-20.456-45.458h-14.691v2.439
				c0,1.625,0.818,2.438,2.454,2.438h3.067v15.855h3.037c2.023,0,3.036-0.888,3.036-2.666v-13.191h3.098
				c1.635,0,2.452-0.812,2.452-2.438C-18.004-44.647-18.821-45.458-20.456-45.458z M47.051-43.299h1.103
				c0.333,0,0.601-0.27,0.601-0.601v-1.21c0-0.33-0.27-0.601-0.601-0.601h-1.103c-0.333,0-0.602,0.271-0.602,0.601v1.21
				C46.449-43.569,46.719-43.299,47.051-43.299z M62.617-47.592l0.003-3.498c-0.42-0.122-2.981-0.22-3.311,0.012
				c-0.425,0.298-0.221,3.093-0.127,3.313C59.612-47.235,61.907-47.552,62.617-47.592z M67.651-48.409l-0.026-4.321
				c-4.154,0-3.695-0.369-3.695,2.13C63.93-47.953,63.472-48.403,67.651-48.409z M58.657-40.564c0.588,0,2.625,0.072,3.04-0.07
				c0.769-0.264,0.568-1.446,0.568-2.381c0-0.556,0.063-2.635-0.051-2.998c-0.276-0.855-1.385-0.633-2.339-0.633
				c-0.615,0-2.548-0.076-2.983,0.045c-0.953,0.264-0.708,1.357-0.708,2.369C56.183-40.34,55.799-40.564,58.657-40.564z
				 M52.929-46.012h1.103c0.332,0,0.601-0.271,0.601-0.601v-1.209c0-0.331-0.271-0.603-0.601-0.603h-1.103
				c-0.33,0-0.601,0.271-0.601,0.603v1.209C52.327-46.283,52.597-46.012,52.929-46.012z M57.626-33.216
				c3.744,0,3.546,0.361,3.546-2.494c0-0.542,0.067-2.645-0.073-3.011c-0.303-0.791-1.548-0.577-2.443-0.577
				c-0.654,0-2.531-0.121-2.997,0.095c-0.801,0.368-0.566,1.444-0.566,2.463C55.092-32.985,54.726-33.216,57.626-33.216z
				 M-5.956-46.071c-3.227,0-5.861,0.995-7.906,2.982c-2.044,1.989-3.066,4.584-3.066,7.784s1.027,5.789,3.083,7.766
				c2.056,1.98,4.673,2.969,7.853,2.969c3.179,0,5.807-0.989,7.881-2.969c2.075-1.978,3.113-4.566,3.113-7.766
				c0-3.199-1.019-5.794-3.061-7.783C-0.098-45.077-2.732-46.071-5.956-46.071z M-2.274-31.487c-0.926,1.012-2.154,1.519-3.68,1.519
				c-1.529,0-2.759-0.502-3.688-1.504c-0.931-1.001-1.396-2.277-1.396-3.827s0.465-2.833,1.396-3.85
				c0.93-1.016,2.163-1.526,3.696-1.526c1.534,0,2.76,0.506,3.681,1.519c0.92,1.012,1.38,2.29,1.38,3.833
				C-0.888-33.776-1.351-32.499-2.274-31.487z M63.059-40.868c-1.316,0.192-0.966,1.988-0.966,3.661
				c0,1.299-0.398,3.481,0.879,3.755c0.773,0.166,3.688,0.038,4.68,0.038v-7.471C66.453-40.886,64.124-41.022,63.059-40.868z
				 M55.379-31.402c-0.684,0-2.673-0.103-3.167,0.072c-0.948,0.333-0.695,1.188-0.695,2.645c0,4.097-0.405,3.86,2.739,3.86
				c4.108,0,3.839,0.389,3.839-2.735C58.095-31.607,58.515-31.402,55.379-31.402z M60.339-32.299
				c-1.879,0.004-1.474,1.425-1.474,3.052c0,5.087-0.563,4.472,4.659,4.421c0-1.512-0.235-5.081,0.392-6.182l0.856-1.263
				C63.66-32.417,61.553-32.303,60.339-32.299z M63.379-42.824c0.022,1.563,1.35,1.067,4.272,1.067l-0.046-5.336
				C62.808-47.093,63.308-47.913,63.379-42.824z M47.979-29.728h-1.048c-0.315,0-0.573,0.259-0.573,0.572v1.149
				c0,0.315,0.258,0.572,0.573,0.572h1.048c0.315,0,0.574-0.257,0.574-0.572v-1.149C48.553-29.469,48.294-29.728,47.979-29.728z
				 M53.861-33.452v-1.925c0-0.527-0.432-0.958-0.959-0.958h-1.754c-0.526,0-0.958,0.431-0.958,0.958v1.925
				c0,0.526,0.433,0.958,0.958,0.958h1.754C53.429-32.494,53.861-32.925,53.861-33.452z M15.507-45.458H6.306v20.702h9.202
				c3.384-0.388,5.715-2.258,6.992-5.612c0.635-1.553,0.952-3.131,0.952-4.731s-0.317-3.182-0.952-4.747
				C21.221-43.198,18.89-45.069,15.507-45.458z M13.482-28.987l-1.105-0.031v-12.269h1.105c2.882,0.103,4.329,2.101,4.34,5.997
				C17.832-31.395,16.386-29.294,13.482-28.987z M43.396-43.089c-2.041-1.987-4.674-2.982-7.899-2.982s-5.86,0.995-7.905,2.982
				c-2.045,1.989-3.066,4.584-3.066,7.783c0,3.2,1.027,5.789,3.082,7.767c2.055,1.98,4.671,2.969,7.851,2.969
				c3.179,0,5.808-0.989,7.883-2.969c2.075-1.978,3.114-4.566,3.114-7.767C46.455-38.505,45.434-41.101,43.396-43.089z
				 M39.176-31.487c-0.924,1.012-2.152,1.519-3.68,1.519c-1.528,0-2.759-0.502-3.688-1.504c-0.929-1.001-1.396-2.277-1.396-3.827
				s0.466-2.833,1.396-3.85c0.929-1.016,2.162-1.526,3.696-1.526c1.534,0,2.76,0.506,3.68,1.519c0.919,1.012,1.38,2.29,1.38,3.833
				C40.564-33.776,40.102-32.499,39.176-31.487z M49.262-39.821h-1.093c-0.327,0-0.596,0.269-0.596,0.596v1.198
				c0,0.328,0.269,0.596,0.596,0.596h1.093c0.329,0,0.595-0.268,0.595-0.596v-1.199C49.856-39.553,49.59-39.821,49.262-39.821z"/>
		</g>
	</g>
	<path fill="#1D4ED8" d="M-36.352-22.845c0.27,0.143,16.557,1.851,18.297,2.034c6.185,0.642,12.48,1.416,18.706,1.746
		c3.199,0.173,6.394,0.39,9.646,0.51c9.263,0.354,20.133,0.046,29.305-1.065c11.599-1.406,23.135-3.546,33.817-7.096
		c9.068-3.015,13.612-4.921,21.879-8.869l5.985-2.959l0.646-0.719c-0.377,0.11-5.655,2.612-6.68,3.066
		C65.791-23.135,33.909-22.208,2.037-22.361c-9.581-0.046-19.089-0.384-28.646-0.462C-29.775-22.849-33.211-23.008-36.352-22.845z"
		/>
	<path fill="#838383" d="M91.425-2.84c0.755,0,1.13-0.388,1.13-1.167v-1.167h-3.203v-1.47h1.78c0.752,0,1.13-0.391,1.13-1.177
		v-1.174h-2.91v-1.426h2.073c0.754,0,1.13-0.388,1.13-1.169v-1.17h-6.116v9.92H91.425L91.425-2.84z M82.506-4.117v-2.527h1.779
		c0.751,0,1.131-0.391,1.131-1.177v-1.174h-2.91v-1.426h2.071c0.756,0,1.131-0.388,1.131-1.169v-1.17h-6.115v8.643
		c0,0.855,0.487,1.282,1.458,1.277C82.019-2.844,82.506-3.269,82.506-4.117L82.506-4.117z M78.86-4.117
		c0,0.852-0.485,1.277-1.452,1.277H75.95v-8.64c0-0.854,0.486-1.28,1.458-1.28h1.452V-4.117L78.86-4.117z M73.548-7.054l1.321,1.805
		c0.358,0.424,0.529,0.812,0.518,1.159c-0.015,0.345-0.19,0.654-0.527,0.929c-0.337,0.275-0.688,0.405-1.06,0.392
		c-0.375-0.012-0.756-0.241-1.141-0.688l-2.3-3.144v2.484c0,0.852-0.487,1.277-1.455,1.277h-1.458v-9.922h1.458h3.291
		c0.812,0,1.488,0.316,2.029,0.94c0.539,0.623,0.808,1.294,0.808,2.01C75.031-8.532,74.537-7.615,73.548-7.054L73.548-7.054z
		 M70.359-10.76v2.266h0.838c0.821,0,1.233-0.378,1.233-1.133s-0.412-1.13-1.233-1.13h-0.838V-10.76z M65.584-2.84
		c0.756,0,1.13-0.388,1.13-1.167v-1.167h-3.201v-1.47h1.777c0.753,0,1.129-0.391,1.129-1.177v-1.174h-2.906v-1.426h2.071
		c0.754,0,1.13-0.388,1.13-1.169v-1.17H60.6v9.92H65.584L65.584-2.84z M56.957-8.335v-3.145c0-0.854,0.483-1.28,1.454-1.28h1.454
		v8.643c0,0.852-0.485,1.277-1.454,1.277c-0.54,0-0.965-0.186-1.279-0.557l-3.26-3.879v3.157c0,0.853-0.487,1.277-1.453,1.277
		h-1.458v-9.913l1.458-0.007c0.621-0.005,1.065,0.195,1.336,0.603L56.957-8.335L56.957-8.335z M49.096-2.84
		c0.755,0,1.131-0.388,1.131-1.167v-1.167h-3.204v-1.47h1.779c0.753,0,1.131-0.391,1.131-1.177v-1.174h-2.91v-1.426h2.071
		c0.755,0,1.131-0.388,1.131-1.169v-1.17h-6.114v9.92H49.096L49.096-2.84z M40.829-10.423v6.322c0,0.851-0.484,1.276-1.454,1.276
		h-1.454v-7.598h-1.47c-0.783,0-1.175-0.386-1.175-1.167v-1.171h7.039c0.785,0,1.175,0.392,1.175,1.171
		c0,0.781-0.392,1.167-1.175,1.167H40.829z"/>
	<path fill="#4B4B4B" d="M20.744-4.588l-0.283,0.75c-0.246,0.667-0.659,0.998-1.228,0.998c-0.573,0-0.981-0.172-1.228-0.522
		c-0.246-0.352-0.37-0.664-0.37-0.946c0-0.279,0.06-0.553,0.182-0.824l3.477-7.627h0.941c0.625,0,1.087,0.334,1.385,1.001
		l3.043,6.626c0.129,0.278,0.191,0.552,0.191,0.83c0,0.281-0.122,0.596-0.359,0.942c-0.241,0.348-0.651,0.52-1.231,0.52
		c-0.58,0-0.996-0.331-1.247-0.999l-0.279-0.75H20.744L20.744-4.588z M31.445-2.811c-0.943,0-1.858-0.146-2.744-0.447
		c-0.887-0.298-1.329-0.795-1.329-1.489c0-0.698,0.174-1.19,0.522-1.486c1.536,0.688,2.639,1.005,3.308,0.958
		c0.669-0.051,1.004-0.222,1.004-0.515c0-0.291-0.179-0.52-0.538-0.688c-0.355-0.171-0.855-0.359-1.494-0.569
		c-0.639-0.21-1.039-0.396-1.203-0.552c-0.745-0.493-1.102-1.228-1.076-2.2c0.021-0.972,0.343-1.752,0.966-2.342
		c0.607-0.579,1.388-0.876,2.338-0.903c0.951-0.027,2.158,0.308,3.621,0.999c-0.248,1.468-0.745,2.1-1.485,1.902
		c-1.949-0.696-2.898-0.718-2.847-0.065c0,0.26,0.174,0.486,0.525,0.67c0.349,0.19,0.843,0.396,1.481,0.618
		c0.635,0.225,1.041,0.394,1.212,0.513c0.704,0.555,1.058,1.339,1.058,2.346c0,1.008-0.324,1.803-0.97,2.39
		C33.168-3.094,32.387-2.811,31.445-2.811L31.445-2.811z M22.873-6.937l-0.631-1.721L21.61-6.937H22.873L22.873-6.937z M12.16-9.703
		l2.045-2.454c0.332-0.403,0.783-0.603,1.353-0.603h1.455v8.643c0,0.852-0.488,1.277-1.455,1.277c-0.97,0-1.454-0.426-1.454-1.277
		v-4.058l-1.942,2.28L10.223-8.16v4.041c0,0.853-0.486,1.277-1.455,1.277H7.311v-9.92h1.458c0.558,0.006,1.002,0.205,1.337,0.603
		L12.16-9.703L12.16-9.703z M4.907-7.054l1.322,1.805c0.359,0.424,0.53,0.812,0.518,1.159C6.73-3.745,6.554-3.436,6.219-3.161
		C5.882-2.886,5.529-2.756,5.157-2.769C4.783-2.781,4.405-3.01,4.018-3.458L1.72-6.601v2.484c0,0.852-0.488,1.277-1.455,1.277
		h-1.457v-9.922h1.458h3.29c0.814,0,1.489,0.316,2.03,0.94c0.539,0.623,0.808,1.294,0.808,2.01C6.392-8.532,5.898-7.615,4.907-7.054
		L4.907-7.054z M1.72-10.76v2.266h0.837c0.823,0,1.232-0.378,1.232-1.133s-0.41-1.13-1.232-1.13H1.72V-10.76z M-1.817-7.894
		c0,1.536-0.496,2.776-1.492,3.723C-4.303-3.222-5.562-2.75-7.087-2.75c-1.523,0-2.775-0.473-3.763-1.423
		c-0.983-0.947-1.474-2.188-1.474-3.722c0-1.534,0.488-2.774,1.467-3.729c0.98-0.953,2.245-1.43,3.789-1.43
		c1.545,0,2.807,0.477,3.784,1.43C-2.306-10.668-1.817-9.429-1.817-7.894L-1.817-7.894z M-5.301-9.738
		c-0.438-0.484-1.028-0.728-1.762-0.728c-0.735,0-1.325,0.246-1.77,0.731c-0.448,0.488-0.669,1.101-0.669,1.843
		c0,0.745,0.221,1.355,0.669,1.833c0.445,0.483,1.035,0.72,1.767,0.72c0.733,0,1.32-0.239,1.764-0.725
		c0.444-0.486,0.664-1.099,0.664-1.838S-4.859-9.252-5.301-9.738L-5.301-9.738z M-16.151-4.117v-2.527h1.777
		c0.754,0,1.132-0.391,1.132-1.177v-1.174h-2.91v-1.426h2.072c0.755,0,1.132-0.388,1.132-1.169v-1.17h-6.115v8.643
		c0,0.855,0.488,1.282,1.458,1.277C-16.637-2.844-16.151-3.269-16.151-4.117L-16.151-4.117z M-20.926-2.84
		c0.755,0,1.132-0.388,1.132-1.167v-1.167h-3.204v-1.47h1.777c0.753,0,1.131-0.391,1.131-1.177v-1.174h-2.909v-1.426h2.071
		c0.755,0,1.131-0.388,1.131-1.169v-1.17h-6.115v9.92H-20.926L-20.926-2.84z M-28.311-7.054l1.321,1.805
		c0.359,0.424,0.53,0.812,0.517,1.159c-0.015,0.345-0.19,0.654-0.526,0.929c-0.336,0.275-0.689,0.405-1.062,0.392
		c-0.374-0.012-0.752-0.241-1.138-0.688l-2.299-3.144v2.484c0,0.852-0.487,1.277-1.455,1.277h-1.458v-9.922h1.458h3.291
		c0.813,0,1.49,0.316,2.029,0.94c0.54,0.623,0.808,1.294,0.808,2.01C-26.827-8.532-27.322-7.615-28.311-7.054L-28.311-7.054z
		 M-31.5-10.76v2.266h0.837c0.824,0,1.234-0.378,1.234-1.133s-0.411-1.13-1.234-1.13H-31.5V-10.76z"/>
</g>
</svg>
