<?xml version="1.0" encoding="utf-8"?>
<!-- Generator: Adobe Illustrator 16.0.0, SVG Export Plug-In . SVG Version: 6.00 Build 0)  -->
<!DOCTYPE svg PUBLIC "-//W3C//DTD SVG 1.1//EN" "http://www.w3.org/Graphics/SVG/1.1/DTD/svg11.dtd">
<svg version="1.1" id="Capa_1" xmlns="http://www.w3.org/2000/svg" xmlns:xlink="http://www.w3.org/1999/xlink" x="0px" y="0px"
	 width="110.623px" height="40px" viewBox="-18.772 -4 110.623 40" enable-background="new -18.772 -4 110.623 40"
	 xml:space="preserve">
<g>
	
		<linearGradient id="SVGID_1_" gradientUnits="userSpaceOnUse" x1="13.8645" y1="142.9316" x2="13.8645" y2="166.1168" gradientTransform="matrix(1 0 0 -1 59.1602 160.9004)">
		<stop  offset="0" style="stop-color:#1D4ED8"/>
		<stop  offset="1" style="stop-color:#3B82F6"/>
	</linearGradient>
	<path fill="url(#SVGID_1_)" d="M64.408,11.459c0.929,0.145,0.872-0.032,1.665,0.443c0.481,0.291,0.801,0.633,1.095,1.079
		l0.531,3.744c0.208-0.113,0.596-0.417,0.798-0.569c0.397-0.298,0.678-0.204,1.191-0.31c0.402-0.083,0.713-0.2,1.106-0.317
		c0.404-0.121,2.08-0.271,2.536-0.39c0.336-0.087,0.541-0.287,1.054-0.435c1.444-0.416,0.302,0.133,1.986-1.014V3.467l5.27-0.021
		l-4.225-1.84c-4.135-1.829-8.805-3.853-13.008-5.579V11.459z"/>
	
		<linearGradient id="SVGID_2_" gradientUnits="userSpaceOnUse" x1="-65.9812" y1="141.3633" x2="25.2698" y2="141.3633" gradientTransform="matrix(1 0 0 -1 59.1602 160.9004)">
		<stop  offset="0" style="stop-color:#FF3400"/>
		<stop  offset="1" style="stop-color:#F97316"/>
	</linearGradient>
	<path fill="url(#SVGID_2_)" d="M-1.196,21.65c3.852,0.646,7.632,1.39,11.566,1.94c1.965,0.275,3.929,0.491,5.909,0.738
		c11.648,1.45,25.968,1.129,37.685-0.785c7.404-1.208,14.281-3.049,21.183-5.647c1.633-0.612,3.216-1.257,4.857-1.887
		c0.807-0.31,1.556-0.683,2.358-1.011c0.403-0.165,0.771-0.345,1.151-0.502l0.513-0.162c0.209-0.102,0.341-0.189,0.402-0.493
		c-1.525,0.585-3.201,1.266-4.719,1.802c-1.598,0.566-3.163,1.076-4.827,1.615c-10.041,3.248-22.96,4.848-33.555,4.94
		c-10.828,0.095-20.051-0.454-30.647-1.482c-0.5-0.049-1.002-0.095-1.498-0.144c-1.372-0.135-2.505,0.156-2.992,0.144
		c-0.269-0.007-0.504-0.073-0.747-0.073c-0.225,0-0.432,0.059-0.672,0.071l-7.431-0.057l-2.903,0.054
		c-0.763-0.038-0.886-0.279-1.26-0.173L-1.196,21.65z"/>
	<g>
		<g>
			
				<linearGradient id="SVGID_3_" gradientUnits="userSpaceOnUse" x1="-84.2439" y1="155.748" x2="-2.0071" y2="155.748" gradientTransform="matrix(1 0 0 -1 66.4351 163.0195)">
				<stop  offset="0" style="stop-color:#FF3400"/>
				<stop  offset="1" style="stop-color:#F97316"/>
			</linearGradient>
			<path fill="url(#SVGID_3_)" d="M52.309,6.107h1.282c0.385,0,0.701-0.316,0.701-0.701V4c0-0.385-0.316-0.7-0.701-0.7h-1.282
				c-0.385,0-0.701,0.315-0.701,0.7v1.406C51.608,5.792,51.924,6.107,52.309,6.107z M-6.056,1.834h-11.753v1.951
				c0,1.3,0.654,1.951,1.963,1.951h2.454v12.684h2.429c1.619,0,2.429-0.71,2.429-2.133V5.735h2.478c1.308,0,1.962-0.65,1.962-1.951
				S-4.748,1.834-6.056,1.834z M47.948,3.561h0.882c0.266,0,0.481-0.216,0.481-0.481V2.112c0-0.264-0.216-0.481-0.481-0.481h-0.882
				c-0.266,0-0.481,0.217-0.481,0.481V3.08C47.467,3.345,47.683,3.561,47.948,3.561z M60.401,0.127l0.002-2.798
				c-0.335-0.097-2.384-0.176-2.648,0.01c-0.34,0.238-0.177,2.474-0.102,2.65C57.997,0.412,59.833,0.159,60.401,0.127z
				 M64.428-0.527l-0.021-3.457c-3.323,0-2.956-0.295-2.956,1.704C61.451-0.162,61.085-0.522,64.428-0.527z M57.233,5.749
				c0.47,0,2.1,0.058,2.432-0.056c0.615-0.211,0.455-1.157,0.455-1.905c0-0.445,0.051-2.108-0.041-2.398
				c-0.22-0.684-1.108-0.506-1.871-0.506c-0.492,0-2.038-0.061-2.386,0.036c-0.763,0.211-0.567,1.086-0.567,1.895
				C55.254,5.928,54.947,5.749,57.233,5.749z M52.651,1.391h0.882c0.266,0,0.481-0.217,0.481-0.481v-0.967
				c0-0.265-0.216-0.482-0.481-0.482h-0.882c-0.264,0-0.481,0.217-0.481,0.482V0.91C52.169,1.174,52.385,1.391,52.651,1.391z
				 M56.408,11.627c2.995,0,2.837,0.289,2.837-1.995c0-0.434,0.054-2.116-0.059-2.409c-0.241-0.632-1.238-0.461-1.954-0.461
				c-0.524,0-2.025-0.097-2.398,0.076c-0.641,0.294-0.453,1.155-0.453,1.97C54.381,11.812,54.088,11.627,56.408,11.627z
				 M5.544,1.343c-2.581,0-4.689,0.796-6.325,2.386C-2.416,5.32-3.234,7.396-3.234,9.956c0,2.56,0.822,4.631,2.466,6.213
				c1.645,1.584,3.738,2.375,6.282,2.375c2.543,0,4.645-0.791,6.305-2.375c1.66-1.582,2.49-3.653,2.49-6.213
				c0-2.559-0.815-4.635-2.448-6.226C10.23,2.139,8.123,1.343,5.544,1.343z M8.489,13.01c-0.741,0.81-1.723,1.215-2.944,1.215
				c-1.223,0-2.207-0.401-2.951-1.203c-0.745-0.801-1.117-1.822-1.117-3.061c0-1.24,0.372-2.266,1.117-3.08
				c0.744-0.813,1.73-1.221,2.957-1.221c1.227,0,2.208,0.405,2.944,1.215c0.736,0.809,1.104,1.832,1.104,3.066
				C9.598,11.179,9.228,12.201,8.489,13.01z M60.754,5.506c-1.053,0.153-0.773,1.59-0.773,2.928c0,1.039-0.318,2.785,0.704,3.004
				c0.618,0.133,2.95,0.03,3.743,0.03V5.491C63.469,5.491,61.607,5.383,60.754,5.506z M54.611,13.078
				c-0.547,0-2.139-0.082-2.534,0.058c-0.758,0.267-0.556,0.95-0.556,2.116c0,3.278-0.324,3.088,2.191,3.088
				c3.286,0,3.071,0.311,3.071-2.188C56.783,12.914,57.119,13.078,54.611,13.078z M58.578,12.361
				c-1.503,0.003-1.179,1.14-1.179,2.441c0,4.07-0.45,3.578,3.728,3.537c0-1.21-0.189-4.065,0.314-4.946l0.684-1.01
				C61.236,12.267,59.55,12.358,58.578,12.361z M61.011,3.941c0.017,1.251,1.079,0.854,3.417,0.854l-0.037-4.269
				C60.554,0.526,60.953-0.13,61.011,3.941z M48.691,14.418h-0.839c-0.252,0-0.458,0.207-0.458,0.458v0.919
				c0,0.252,0.206,0.458,0.458,0.458h0.839c0.252,0,0.459-0.206,0.459-0.458v-0.919C49.15,14.625,48.943,14.418,48.691,14.418z
				 M53.396,11.439v-1.54c0-0.422-0.345-0.766-0.767-0.766h-1.403c-0.421,0-0.767,0.344-0.767,0.766v1.54
				c0,0.421,0.346,0.766,0.767,0.766h1.403C53.051,12.205,53.396,11.86,53.396,11.439z M22.714,1.834h-7.361v16.561h7.361
				c2.707-0.31,4.572-1.806,5.593-4.489c0.508-1.243,0.762-2.505,0.762-3.785s-0.254-2.546-0.762-3.797
				C27.285,3.642,25.42,2.145,22.714,1.834z M21.094,15.01l-0.884-0.024V5.171h0.884c2.306,0.082,3.463,1.681,3.472,4.797
				C24.573,13.084,23.417,14.765,21.094,15.01z M45.024,3.729c-1.633-1.59-3.739-2.386-6.319-2.386s-4.688,0.796-6.324,2.386
				c-1.636,1.591-2.453,3.667-2.453,6.226c0,2.56,0.822,4.631,2.466,6.213c1.644,1.584,3.737,2.375,6.281,2.375
				c2.543,0,4.646-0.791,6.306-2.375c1.66-1.582,2.491-3.653,2.491-6.213C47.471,7.396,46.655,5.32,45.024,3.729z M41.649,13.01
				c-0.74,0.81-1.722,1.215-2.944,1.215s-2.207-0.401-2.95-1.203c-0.744-0.801-1.117-1.822-1.117-3.061
				c0-1.24,0.373-2.266,1.117-3.08c0.743-0.813,1.729-1.221,2.957-1.221c1.227,0,2.208,0.405,2.944,1.215
				c0.735,0.809,1.104,1.832,1.104,3.066C42.759,11.179,42.389,12.201,41.649,13.01z M49.717,6.343h-0.874
				c-0.262,0-0.477,0.215-0.477,0.477v0.958c0,0.262,0.215,0.477,0.477,0.477h0.874c0.263,0,0.476-0.214,0.476-0.477V6.819
				C50.193,6.558,49.98,6.343,49.717,6.343z"/>
		</g>
	</g>
	<path fill="#1D4ED8" d="M-18.772,19.924c0.216,0.114,13.245,1.481,14.637,1.627c4.948,0.514,9.984,1.132,14.965,1.397
		c2.559,0.138,5.115,0.311,7.717,0.408c7.41,0.283,16.106,0.036,23.443-0.853c9.279-1.125,18.508-2.837,27.053-5.677
		c7.255-2.412,10.89-3.937,17.503-7.095l4.788-2.367l0.517-0.575c-0.302,0.088-4.525,2.09-5.344,2.453
		C62.941,19.692,37.435,20.434,11.938,20.311c-7.664-0.037-15.271-0.307-22.916-0.37C-13.511,19.921-16.26,19.794-18.772,19.924z"/>
	<path fill="#838383" d="M83.447,35.928c0.604,0,0.904-0.311,0.904-0.934V34.06h-2.563v-1.175h1.424
		c0.602,0,0.904-0.313,0.904-0.942v-0.939h-2.328v-1.141h1.658c0.604,0,0.904-0.31,0.904-0.935v-0.936h-4.892v7.936H83.447
		L83.447,35.928z M76.312,34.906v-2.021h1.423c0.601,0,0.904-0.313,0.904-0.942v-0.939h-2.327v-1.141h1.657
		c0.604,0,0.904-0.31,0.904-0.935v-0.936h-4.891v6.914c0,0.685,0.389,1.025,1.165,1.021C75.922,35.925,76.312,35.585,76.312,34.906
		L76.312,34.906z M73.395,34.906c0,0.682-0.388,1.021-1.162,1.021h-1.165v-6.912c0-0.682,0.388-1.023,1.165-1.023h1.162V34.906
		L73.395,34.906z M69.145,32.556l1.057,1.445c0.287,0.339,0.424,0.649,0.414,0.926c-0.012,0.277-0.152,0.524-0.421,0.744
		c-0.27,0.22-0.552,0.324-0.849,0.313c-0.299-0.01-0.604-0.192-0.912-0.55l-1.84-2.515v1.987c0,0.682-0.389,1.021-1.163,1.021
		h-1.166v-7.936h1.166h2.632c0.65,0,1.191,0.252,1.624,0.751c0.431,0.499,0.646,1.036,0.646,1.607
		C70.332,31.374,69.937,32.108,69.145,32.556L69.145,32.556z M66.594,29.592v1.812h0.671c0.657,0,0.987-0.303,0.987-0.906
		c0-0.603-0.33-0.905-0.987-0.905H66.594L66.594,29.592z M62.775,35.928c0.604,0,0.904-0.311,0.904-0.934V34.06h-2.562v-1.175h1.422
		c0.602,0,0.904-0.313,0.904-0.942v-0.939h-2.326v-1.141h1.657c0.604,0,0.904-0.31,0.904-0.935v-0.936h-4.891v7.936H62.775
		L62.775,35.928z M55.873,31.532v-2.517c0-0.682,0.387-1.023,1.163-1.023h1.163v6.914c0,0.682-0.387,1.021-1.163,1.021
		c-0.431,0-0.772-0.147-1.023-0.445l-2.608-3.103v2.526c0,0.682-0.39,1.021-1.163,1.021h-1.166v-7.93l1.166-0.006
		c0.497-0.004,0.852,0.156,1.069,0.483L55.873,31.532L55.873,31.532z M49.584,35.928c0.604,0,0.905-0.311,0.905-0.934V34.06h-2.563
		v-1.175h1.423c0.602,0,0.905-0.313,0.905-0.942v-0.939h-2.328v-1.141h1.657c0.604,0,0.905-0.31,0.905-0.935v-0.936h-4.892v7.936
		H49.584L49.584,35.928z M42.971,29.862v5.057c0,0.681-0.387,1.021-1.163,1.021h-1.163v-6.078h-1.176c-0.626,0-0.94-0.31-0.94-0.935
		v-0.936h5.631c0.628,0,0.94,0.313,0.94,0.936c0,0.625-0.313,0.935-0.94,0.935H42.971z"/>
	<path fill="#4B4B4B" d="M26.903,34.53l-0.226,0.6c-0.197,0.533-0.527,0.798-0.982,0.798c-0.458,0-0.785-0.138-0.982-0.418
		c-0.197-0.281-0.296-0.532-0.296-0.757c0-0.223,0.048-0.442,0.146-0.659l2.781-6.102h0.753c0.5,0,0.87,0.268,1.108,0.801
		l2.434,5.301c0.103,0.222,0.153,0.441,0.153,0.664c0,0.225-0.097,0.476-0.287,0.753c-0.193,0.279-0.521,0.417-0.985,0.417
		s-0.797-0.265-0.997-0.799L29.3,34.53H26.903L26.903,34.53z M35.464,35.951c-0.755,0-1.487-0.117-2.195-0.358
		c-0.71-0.238-1.063-0.635-1.063-1.191c0-0.559,0.139-0.952,0.418-1.188c1.229,0.549,2.111,0.803,2.646,0.766
		c0.535-0.041,0.803-0.177,0.803-0.412c0-0.232-0.143-0.415-0.43-0.55c-0.284-0.137-0.684-0.287-1.195-0.455
		c-0.511-0.169-0.831-0.317-0.962-0.442c-0.596-0.394-0.882-0.982-0.861-1.759c0.017-0.778,0.275-1.402,0.773-1.874
		c0.486-0.462,1.11-0.701,1.87-0.723c0.761-0.021,1.726,0.247,2.897,0.8c-0.198,1.173-0.596,1.679-1.188,1.521
		c-1.559-0.556-2.319-0.574-2.278-0.052c0,0.208,0.14,0.389,0.42,0.537c0.279,0.151,0.675,0.315,1.185,0.494
		c0.508,0.179,0.833,0.315,0.97,0.409c0.563,0.445,0.846,1.072,0.846,1.878s-0.259,1.442-0.776,1.912
		C36.843,35.725,36.218,35.951,35.464,35.951L35.464,35.951z M28.606,32.65l-0.505-1.377l-0.505,1.377H28.606L28.606,32.65z
		 M20.036,30.438l1.636-1.963c0.265-0.322,0.626-0.483,1.082-0.483h1.164v6.914c0,0.682-0.39,1.021-1.164,1.021
		c-0.776,0-1.163-0.34-1.163-1.021V31.66l-1.554,1.824l-1.55-1.812v3.233c0,0.682-0.389,1.021-1.164,1.021h-1.166v-7.936h1.166
		c0.446,0.005,0.802,0.165,1.07,0.483L20.036,30.438L20.036,30.438z M14.234,32.556l1.057,1.445
		c0.287,0.339,0.424,0.649,0.414,0.926c-0.012,0.277-0.153,0.524-0.422,0.744c-0.269,0.22-0.551,0.324-0.849,0.313
		c-0.299-0.01-0.602-0.192-0.911-0.55l-1.839-2.515v1.987c0,0.682-0.39,1.021-1.164,1.021H9.355v-7.936h1.166h2.632
		c0.651,0,1.191,0.252,1.624,0.751c0.431,0.499,0.646,1.036,0.646,1.607C15.422,31.374,15.027,32.108,14.234,32.556L14.234,32.556z
		 M11.684,29.592v1.812h0.67c0.658,0,0.986-0.303,0.986-0.906c0-0.603-0.328-0.905-0.986-0.905H11.684L11.684,29.592z M8.855,31.885
		c0,1.228-0.397,2.22-1.194,2.978C6.866,35.622,5.859,36,4.639,36c-1.218,0-2.22-0.378-3.01-1.138
		c-0.786-0.758-1.179-1.75-1.179-2.978s0.391-2.22,1.174-2.983c0.784-0.763,1.796-1.144,3.031-1.144
		c1.236,0,2.245,0.381,3.027,1.144C8.464,29.665,8.855,30.657,8.855,31.885L8.855,31.885z M6.068,30.409
		c-0.35-0.388-0.823-0.582-1.41-0.582c-0.588,0-1.06,0.196-1.416,0.585c-0.358,0.391-0.535,0.881-0.535,1.475
		c0,0.596,0.177,1.084,0.535,1.467c0.356,0.386,0.828,0.576,1.414,0.576s1.056-0.192,1.411-0.581
		c0.355-0.388,0.531-0.878,0.531-1.47S6.421,30.798,6.068,30.409L6.068,30.409z M-2.612,34.906v-2.021h1.422
		c0.603,0,0.906-0.313,0.906-0.942v-0.939h-2.328v-1.141h1.658c0.604,0,0.905-0.31,0.905-0.935v-0.936h-4.892v6.914
		c0,0.685,0.39,1.025,1.166,1.021C-3.001,35.925-2.612,35.585-2.612,34.906L-2.612,34.906z M-6.432,35.928
		c0.604,0,0.905-0.311,0.905-0.934V34.06h-2.563v-1.175h1.422c0.602,0,0.905-0.313,0.905-0.942v-0.939H-8.09v-1.141h1.657
		c0.604,0,0.905-0.31,0.905-0.935v-0.936h-4.892v7.936H-6.432L-6.432,35.928z M-12.34,32.556l1.057,1.445
		c0.287,0.339,0.424,0.649,0.413,0.926c-0.012,0.277-0.152,0.524-0.421,0.744c-0.269,0.22-0.552,0.324-0.849,0.313
		c-0.299-0.01-0.602-0.192-0.911-0.55l-1.839-2.515v1.987c0,0.682-0.39,1.021-1.164,1.021h-1.166v-7.936h1.166h2.632
		c0.65,0,1.192,0.252,1.623,0.751c0.432,0.499,0.646,1.036,0.646,1.607C-11.153,31.374-11.549,32.108-12.34,32.556L-12.34,32.556z
		 M-14.891,29.592v1.812h0.67c0.659,0,0.987-0.303,0.987-0.906c0-0.603-0.329-0.905-0.987-0.905H-14.891L-14.891,29.592z"/>
</g>
</svg>
