<?xml version="1.0" encoding="utf-8"?>
<!-- Generator: Adobe Illustrator 16.0.0, SVG Export Plug-In . SVG Version: 6.00 Build 0)  -->
<!DOCTYPE svg PUBLIC "-//W3C//DTD SVG 1.1//EN" "http://www.w3.org/Graphics/SVG/1.1/DTD/svg11.dtd">
<svg version="1.1" id="Capa_1" xmlns="http://www.w3.org/2000/svg" xmlns:xlink="http://www.w3.org/1999/xlink" x="0px" y="0px"
	 width="530px" height="210px" viewBox="-356.876 -318 530 210" enable-background="new -356.876 -318 530 210"
	 xml:space="preserve">
<image overflow="visible" width="940" height="189" xlink:href="8497CB41.jpg"  transform="matrix(1 0 0 1 -414.376 -624.5)">
</image>
<polygon fill="#FFFFFF" points="-290.876,-256.808 57.624,-259.423 57.624,-197.172 -290.876,-197.172 "/>
<polygon fill="#FFFFFF" points="-175.876,-171.431 -168.376,-160.014 -149.376,-165.722 -141.376,-158.954 -129.876,-168 
	-116.626,-152.5 -101.876,-177 "/>
<g>
	<g>
		<path fill="none" stroke="#FFFFFF" stroke-width="17" stroke-linecap="round" stroke-linejoin="round" d="M35.362-233.682
			c4.197,0.653,3.945-0.148,7.523,2.002c2.184,1.313,3.619,2.861,4.949,4.877l2.402,16.919c0.943-0.511,2.691-1.882,3.609-2.572
			c1.791-1.345,3.061-0.92,5.383-1.397c1.816-0.374,3.221-0.903,4.998-1.436c1.83-0.544,9.406-1.223,11.467-1.759
			c1.52-0.396,2.445-1.3,4.764-1.967c6.525-1.88,1.361,0.601,8.973-4.586v-46.203l23.822-0.093l-19.098-8.315
			c-18.688-8.269-39.797-17.412-58.795-25.214L35.362-233.682z"/>
		<path fill="none" stroke="#FFFFFF" stroke-width="17" stroke-linecap="round" stroke-linejoin="round" d="M-261.159-187.618
			c17.408,2.918,34.493,6.278,52.279,8.768c8.884,1.242,17.761,2.223,26.71,3.337c52.647,6.554,117.374,5.107,170.331-3.545
			c33.468-5.468,64.545-13.784,95.742-25.525c7.377-2.775,14.535-5.684,21.955-8.531c3.645-1.398,7.029-3.086,10.662-4.569
			c1.82-0.744,3.482-1.557,5.199-2.271l2.316-0.729c0.945-0.459,1.543-0.857,1.824-2.229c-6.896,2.645-14.473,5.721-21.334,8.147
			c-7.221,2.556-14.291,4.863-21.813,7.297C37.323-192.786-21.065-185.557-68.95-185.136c-48.943,0.43-90.63-2.055-138.524-6.702
			c-2.261-0.219-4.53-0.433-6.769-0.652c-6.2-0.607-11.323,0.71-13.524,0.649c-1.214-0.033-2.279-0.332-3.377-0.33
			c-1.017,0.001-1.953,0.265-3.04,0.317l-33.584-0.25l-13.12,0.245c-3.451-0.173-4.003-1.265-5.697-0.782L-261.159-187.618z"/>
		<g>
			<g>
				<path fill="none" stroke="#FFFFFF" stroke-width="17" stroke-linecap="round" stroke-linejoin="round" d="M-19.328-257.873
					h5.797c1.741,0,3.167-1.425,3.167-3.167v-6.354c0-1.74-1.426-3.166-3.167-3.166h-5.797c-1.741,0-3.166,1.426-3.166,3.166v6.354
					C-22.493-259.298-21.069-257.873-19.328-257.873z M-283.127-277.186h-53.122v8.816c0,5.878,2.957,8.817,8.872,8.817h11.091
					v57.334h10.979c7.319,0,10.979-3.215,10.979-9.647v-47.687h11.201c5.914,0,8.872-2.939,8.872-8.817
					S-277.213-277.186-283.127-277.186z M-39.035-269.38h3.985c1.198,0,2.178-0.979,2.178-2.176v-4.37
					c0-1.197-0.979-2.177-2.178-2.177h-3.985c-1.198,0-2.176,0.979-2.176,2.177v4.37C-41.211-270.358-40.233-269.38-39.035-269.38z
					 M17.246-284.9l0.013-12.644c-1.518-0.44-10.776-0.799-11.976,0.044c-1.531,1.073-0.799,11.18-0.458,11.976
					C6.385-283.616,14.681-284.757,17.246-284.9z M35.448-287.859l-0.092-15.627c-15.022,0-13.362-1.335-13.362,7.7
					C21.995-286.21,20.342-287.838,35.448-287.859z M2.93-259.49c2.125,0,9.487,0.262,10.989-0.252
					c2.781-0.955,2.059-5.23,2.059-8.612c0-2.012,0.229-9.527-0.19-10.839c-0.989-3.09-5.007-2.287-8.455-2.287
					c-2.221,0-9.208-0.273-10.781,0.162c-3.446,0.954-2.563,4.91-2.563,8.563C-6.011-258.682-7.404-259.49,2.93-259.49z
					 M-17.781-279.188h3.987c1.196,0,2.176-0.979,2.176-2.178v-4.37c0-1.196-0.98-2.176-2.176-2.176h-3.987
					c-1.196,0-2.176,0.979-2.176,2.176v4.37C-19.958-280.168-18.978-279.188-17.781-279.188z M-0.794-232.921
					c13.534,0,12.821,1.307,12.821-9.018c0-1.963,0.244-9.566-0.261-10.888c-1.096-2.858-5.604-2.085-8.836-2.085
					c-2.376,0-9.157-0.437-10.842,0.341c-2.896,1.332-2.05,5.225-2.05,8.906C-9.962-232.09-11.286-232.921-0.794-232.921z
					 M-230.699-279.404c-11.664,0-21.191,3.598-28.585,10.785c-7.394,7.191-11.09,16.572-11.09,28.142
					c0,11.57,3.716,20.933,11.146,28.085c7.431,7.153,16.894,10.73,28.391,10.73c11.497,0,20.996-3.577,28.501-10.73
					c7.503-7.152,11.257-16.515,11.257-28.085c0-11.569-3.688-20.95-11.063-28.142
					C-209.516-275.807-219.036-279.404-230.699-279.404z M-217.391-226.671c-3.346,3.66-7.782,5.489-13.308,5.489
					c-5.526,0-9.972-1.81-13.336-5.434c-3.364-3.622-5.045-8.234-5.045-13.835s1.681-10.239,5.045-13.917
					c3.364-3.678,7.819-5.518,13.364-5.518c5.545,0,9.981,1.83,13.308,5.489c3.327,3.66,4.99,8.281,4.99,13.862
					C-212.373-234.95-214.046-230.33-217.391-226.671z M18.848-260.588c-4.763,0.689-3.498,7.185-3.498,13.23
					c0,4.695-1.44,12.588,3.184,13.581c2.791,0.599,13.334,0.135,16.915,0.135v-27.017
					C31.116-260.658,22.701-261.144,18.848-260.588z M-8.92-226.367c-2.472,0-9.666-0.371-11.459,0.263
					c-3.424,1.207-2.507,4.296-2.507,9.565c0,14.814-1.47,13.958,9.903,13.958c14.852,0,13.88,1.402,13.88-9.894
					C0.896-227.11,2.416-226.367-8.92-226.367z M9.008-229.607c-6.79,0.016-5.325,5.156-5.325,11.037
					c0,18.394-2.034,16.168,16.848,15.984c0-5.469-0.854-18.377,1.42-22.358l3.09-4.562
					C21.022-230.034,13.405-229.617,9.008-229.607z M20.004-267.661c0.078,5.652,4.879,3.858,15.444,3.858l-0.164-19.294
					C17.943-283.097,19.749-286.064,20.004-267.661z M-35.68-220.304h-3.79c-1.139,0-2.071,0.931-2.071,2.07v4.155
					c0,1.14,0.933,2.071,2.071,2.071h3.79c1.14,0,2.071-0.932,2.071-2.071v-4.155C-33.609-219.373-34.541-220.304-35.68-220.304z
					 M-14.412-233.775v-6.957c0-1.905-1.56-3.463-3.465-3.463h-6.345c-1.905,0-3.463,1.558-3.463,3.463v6.957
					c0,1.904,1.559,3.463,3.463,3.463h6.345C-15.972-230.313-14.412-231.871-14.412-233.775z M-153.095-277.186h-33.271v74.857
					h33.271c12.234-1.404,20.664-8.168,25.285-20.295c2.292-5.619,3.438-11.32,3.438-17.105s-1.147-11.507-3.438-17.162
					C-132.431-269.015-140.861-275.781-153.095-277.186z M-160.415-217.633l-3.993-0.11v-44.36h3.993
					c10.424,0.37,15.654,7.598,15.691,21.683C-144.687-226.338-149.917-218.741-160.415-217.633z M-52.259-268.619
					c-7.375-7.188-16.895-10.785-28.558-10.785c-11.663,0-21.191,3.598-28.584,10.785c-7.394,7.191-11.09,16.572-11.09,28.142
					c0,11.57,3.716,20.933,11.146,28.085c7.43,7.153,16.894,10.73,28.39,10.73s20.998-3.577,28.502-10.73
					c7.503-7.152,11.257-16.515,11.257-28.085C-41.196-252.047-44.883-261.428-52.259-268.619z M-67.509-226.671
					c-3.345,3.66-7.782,5.489-13.308,5.489c-5.526,0-9.972-1.81-13.336-5.434c-3.363-3.622-5.045-8.234-5.045-13.835
					s1.682-10.239,5.045-13.917c3.364-3.678,7.82-5.518,13.365-5.518c5.544,0,9.981,1.83,13.308,5.489
					c3.327,3.66,4.99,8.281,4.99,13.862C-62.49-234.95-64.162-230.33-67.509-226.671z M-31.042-256.808h-3.948
					c-1.185,0-2.154,0.971-2.154,2.156v4.326c0,1.186,0.969,2.155,2.154,2.155h3.948c1.184,0,2.154-0.97,2.154-2.155v-4.326
					C-28.888-255.837-29.858-256.808-31.042-256.808z"/>
			</g>
			<g>
				<path fill="none" stroke="#FFFFFF" stroke-width="17" stroke-linecap="round" stroke-linejoin="round" d="M-19.328-257.873
					h5.797c1.741,0,3.167-1.425,3.167-3.167v-6.354c0-1.74-1.426-3.166-3.167-3.166h-5.797c-1.741,0-3.166,1.426-3.166,3.166v6.354
					C-22.493-259.298-21.069-257.873-19.328-257.873z M-283.127-277.186h-53.122v8.816c0,5.878,2.957,8.817,8.872,8.817h11.091
					v57.334h10.979c7.319,0,10.979-3.215,10.979-9.647v-47.687h11.201c5.914,0,8.872-2.939,8.872-8.817
					S-277.213-277.186-283.127-277.186z M-39.035-269.38h3.985c1.198,0,2.178-0.979,2.178-2.176v-4.37
					c0-1.197-0.979-2.177-2.178-2.177h-3.985c-1.198,0-2.176,0.979-2.176,2.177v4.37C-41.211-270.358-40.233-269.38-39.035-269.38z
					 M17.246-284.9l0.013-12.644c-1.518-0.44-10.776-0.799-11.976,0.044c-1.531,1.073-0.799,11.18-0.458,11.976
					C6.385-283.616,14.681-284.757,17.246-284.9z M35.448-287.859l-0.092-15.627c-15.022,0-13.362-1.335-13.362,7.7
					C21.995-286.21,20.342-287.838,35.448-287.859z M2.93-259.49c2.125,0,9.487,0.262,10.989-0.252
					c2.781-0.955,2.059-5.23,2.059-8.612c0-2.012,0.229-9.527-0.19-10.839c-0.989-3.09-5.007-2.287-8.455-2.287
					c-2.221,0-9.208-0.273-10.781,0.162c-3.446,0.954-2.563,4.91-2.563,8.563C-6.011-258.682-7.404-259.49,2.93-259.49z
					 M-17.781-279.188h3.987c1.196,0,2.176-0.979,2.176-2.178v-4.37c0-1.196-0.98-2.176-2.176-2.176h-3.987
					c-1.196,0-2.176,0.979-2.176,2.176v4.37C-19.958-280.168-18.978-279.188-17.781-279.188z M-0.794-232.921
					c13.534,0,12.821,1.307,12.821-9.018c0-1.963,0.244-9.566-0.261-10.888c-1.096-2.858-5.604-2.085-8.836-2.085
					c-2.376,0-9.157-0.437-10.842,0.341c-2.896,1.332-2.05,5.225-2.05,8.906C-9.962-232.09-11.286-232.921-0.794-232.921z
					 M-230.699-279.404c-11.664,0-21.191,3.598-28.585,10.785c-7.394,7.191-11.09,16.572-11.09,28.142
					c0,11.57,3.716,20.933,11.146,28.085c7.431,7.153,16.894,10.73,28.391,10.73c11.497,0,20.996-3.577,28.501-10.73
					c7.503-7.152,11.257-16.515,11.257-28.085c0-11.569-3.688-20.95-11.063-28.142
					C-209.516-275.807-219.036-279.404-230.699-279.404z M-217.391-226.671c-3.346,3.66-7.782,5.489-13.308,5.489
					c-5.526,0-9.972-1.81-13.336-5.434c-3.364-3.622-5.045-8.234-5.045-13.835s1.681-10.239,5.045-13.917
					c3.364-3.678,7.819-5.518,13.364-5.518c5.545,0,9.981,1.83,13.308,5.489c3.327,3.66,4.99,8.281,4.99,13.862
					C-212.373-234.95-214.046-230.33-217.391-226.671z M18.848-260.588c-4.763,0.689-3.498,7.185-3.498,13.23
					c0,4.695-1.44,12.588,3.184,13.581c2.791,0.599,13.334,0.135,16.915,0.135v-27.017
					C31.116-260.658,22.701-261.144,18.848-260.588z M-8.92-226.367c-2.472,0-9.666-0.371-11.459,0.263
					c-3.424,1.207-2.507,4.296-2.507,9.565c0,14.814-1.47,13.958,9.903,13.958c14.852,0,13.88,1.402,13.88-9.894
					C0.896-227.11,2.416-226.367-8.92-226.367z M9.008-229.607c-6.79,0.016-5.325,5.156-5.325,11.037
					c0,18.394-2.034,16.168,16.848,15.984c0-5.469-0.854-18.377,1.42-22.358l3.09-4.562
					C21.022-230.034,13.405-229.617,9.008-229.607z M20.004-267.661c0.078,5.652,4.879,3.858,15.444,3.858l-0.164-19.294
					C17.943-283.097,19.749-286.064,20.004-267.661z M-35.68-220.304h-3.79c-1.139,0-2.071,0.931-2.071,2.07v4.155
					c0,1.14,0.933,2.071,2.071,2.071h3.79c1.14,0,2.071-0.932,2.071-2.071v-4.155C-33.609-219.373-34.541-220.304-35.68-220.304z
					 M-14.412-233.775v-6.957c0-1.905-1.56-3.463-3.465-3.463h-6.345c-1.905,0-3.463,1.558-3.463,3.463v6.957
					c0,1.904,1.559,3.463,3.463,3.463h6.345C-15.972-230.313-14.412-231.871-14.412-233.775z M-153.095-277.186h-33.271v74.857
					h33.271c12.234-1.404,20.664-8.168,25.285-20.295c2.292-5.619,3.438-11.32,3.438-17.105s-1.147-11.507-3.438-17.162
					C-132.431-269.015-140.861-275.781-153.095-277.186z M-160.415-217.633l-3.993-0.11v-44.36h3.993
					c10.424,0.37,15.654,7.598,15.691,21.683C-144.687-226.338-149.917-218.741-160.415-217.633z M-52.259-268.619
					c-7.375-7.188-16.895-10.785-28.558-10.785c-11.663,0-21.191,3.598-28.584,10.785c-7.394,7.191-11.09,16.572-11.09,28.142
					c0,11.57,3.716,20.933,11.146,28.085c7.43,7.153,16.894,10.73,28.39,10.73s20.998-3.577,28.502-10.73
					c7.503-7.152,11.257-16.515,11.257-28.085C-41.196-252.047-44.883-261.428-52.259-268.619z M-67.509-226.671
					c-3.345,3.66-7.782,5.489-13.308,5.489c-5.526,0-9.972-1.81-13.336-5.434c-3.363-3.622-5.045-8.234-5.045-13.835
					s1.682-10.239,5.045-13.917c3.364-3.678,7.82-5.518,13.365-5.518c5.544,0,9.981,1.83,13.308,5.489
					c3.327,3.66,4.99,8.281,4.99,13.862C-62.49-234.95-64.162-230.33-67.509-226.671z M-31.042-256.808h-3.948
					c-1.185,0-2.154,0.971-2.154,2.156v4.326c0,1.186,0.969,2.155,2.154,2.155h3.948c1.184,0,2.154-0.97,2.154-2.155v-4.326
					C-28.888-255.837-29.858-256.808-31.042-256.808z"/>
			</g>
			<g>
				<path fill="none" stroke="#FFFFFF" stroke-width="17" stroke-linecap="round" stroke-linejoin="round" d="M-19.328-257.873
					h5.797c1.741,0,3.167-1.425,3.167-3.167v-6.354c0-1.74-1.426-3.166-3.167-3.166h-5.797c-1.741,0-3.166,1.426-3.166,3.166v6.354
					C-22.493-259.298-21.069-257.873-19.328-257.873z M-283.127-277.186h-53.122v8.816c0,5.878,2.957,8.817,8.872,8.817h11.091
					v57.334h10.979c7.319,0,10.979-3.215,10.979-9.647v-47.687h11.201c5.914,0,8.872-2.939,8.872-8.817
					S-277.213-277.186-283.127-277.186z M-39.035-269.38h3.985c1.198,0,2.178-0.979,2.178-2.176v-4.37
					c0-1.197-0.979-2.177-2.178-2.177h-3.985c-1.198,0-2.176,0.979-2.176,2.177v4.37C-41.211-270.358-40.233-269.38-39.035-269.38z
					 M17.246-284.9l0.013-12.644c-1.518-0.44-10.776-0.799-11.976,0.044c-1.531,1.073-0.799,11.18-0.458,11.976
					C6.385-283.616,14.681-284.757,17.246-284.9z M35.448-287.859l-0.092-15.627c-15.022,0-13.362-1.335-13.362,7.7
					C21.995-286.21,20.342-287.838,35.448-287.859z M2.93-259.49c2.125,0,9.487,0.262,10.989-0.252
					c2.781-0.955,2.059-5.23,2.059-8.612c0-2.012,0.229-9.527-0.19-10.839c-0.989-3.09-5.007-2.287-8.455-2.287
					c-2.221,0-9.208-0.273-10.781,0.162c-3.446,0.954-2.563,4.91-2.563,8.563C-6.011-258.682-7.404-259.49,2.93-259.49z
					 M-17.781-279.188h3.987c1.196,0,2.176-0.979,2.176-2.178v-4.37c0-1.196-0.98-2.176-2.176-2.176h-3.987
					c-1.196,0-2.176,0.979-2.176,2.176v4.37C-19.958-280.168-18.978-279.188-17.781-279.188z M-0.794-232.921
					c13.534,0,12.821,1.307,12.821-9.018c0-1.963,0.244-9.566-0.261-10.888c-1.096-2.858-5.604-2.085-8.836-2.085
					c-2.376,0-9.157-0.437-10.842,0.341c-2.896,1.332-2.05,5.225-2.05,8.906C-9.962-232.09-11.286-232.921-0.794-232.921z
					 M-230.699-279.404c-11.664,0-21.191,3.598-28.585,10.785c-7.394,7.191-11.09,16.572-11.09,28.142
					c0,11.57,3.716,20.933,11.146,28.085c7.431,7.153,16.894,10.73,28.391,10.73c11.497,0,20.996-3.577,28.501-10.73
					c7.503-7.152,11.257-16.515,11.257-28.085c0-11.569-3.688-20.95-11.063-28.142
					C-209.516-275.807-219.036-279.404-230.699-279.404z M-217.391-226.671c-3.346,3.66-7.782,5.489-13.308,5.489
					c-5.526,0-9.972-1.81-13.336-5.434c-3.364-3.622-5.045-8.234-5.045-13.835s1.681-10.239,5.045-13.917
					c3.364-3.678,7.819-5.518,13.364-5.518c5.545,0,9.981,1.83,13.308,5.489c3.327,3.66,4.99,8.281,4.99,13.862
					C-212.373-234.95-214.046-230.33-217.391-226.671z M18.848-260.588c-4.763,0.689-3.498,7.185-3.498,13.23
					c0,4.695-1.44,12.588,3.184,13.581c2.791,0.599,13.334,0.135,16.915,0.135v-27.017
					C31.116-260.658,22.701-261.144,18.848-260.588z M-8.92-226.367c-2.472,0-9.666-0.371-11.459,0.263
					c-3.424,1.207-2.507,4.296-2.507,9.565c0,14.814-1.47,13.958,9.903,13.958c14.852,0,13.88,1.402,13.88-9.894
					C0.896-227.11,2.416-226.367-8.92-226.367z M9.008-229.607c-6.79,0.016-5.325,5.156-5.325,11.037
					c0,18.394-2.034,16.168,16.848,15.984c0-5.469-0.854-18.377,1.42-22.358l3.09-4.562
					C21.022-230.034,13.405-229.617,9.008-229.607z M20.004-267.661c0.078,5.652,4.879,3.858,15.444,3.858l-0.164-19.294
					C17.943-283.097,19.749-286.064,20.004-267.661z M-35.68-220.304h-3.79c-1.139,0-2.071,0.931-2.071,2.07v4.155
					c0,1.14,0.933,2.071,2.071,2.071h3.79c1.14,0,2.071-0.932,2.071-2.071v-4.155C-33.609-219.373-34.541-220.304-35.68-220.304z
					 M-14.412-233.775v-6.957c0-1.905-1.56-3.463-3.465-3.463h-6.345c-1.905,0-3.463,1.558-3.463,3.463v6.957
					c0,1.904,1.559,3.463,3.463,3.463h6.345C-15.972-230.313-14.412-231.871-14.412-233.775z M-153.095-277.186h-33.271v74.857
					h33.271c12.234-1.404,20.664-8.168,25.285-20.295c2.292-5.619,3.438-11.32,3.438-17.105s-1.147-11.507-3.438-17.162
					C-132.431-269.015-140.861-275.781-153.095-277.186z M-160.415-217.633l-3.993-0.11v-44.36h3.993
					c10.424,0.37,15.654,7.598,15.691,21.683C-144.687-226.338-149.917-218.741-160.415-217.633z M-52.259-268.619
					c-7.375-7.188-16.895-10.785-28.558-10.785c-11.663,0-21.191,3.598-28.584,10.785c-7.394,7.191-11.09,16.572-11.09,28.142
					c0,11.57,3.716,20.933,11.146,28.085c7.43,7.153,16.894,10.73,28.39,10.73s20.998-3.577,28.502-10.73
					c7.503-7.152,11.257-16.515,11.257-28.085C-41.196-252.047-44.883-261.428-52.259-268.619z M-67.509-226.671
					c-3.345,3.66-7.782,5.489-13.308,5.489c-5.526,0-9.972-1.81-13.336-5.434c-3.363-3.622-5.045-8.234-5.045-13.835
					s1.682-10.239,5.045-13.917c3.364-3.678,7.82-5.518,13.365-5.518c5.544,0,9.981,1.83,13.308,5.489
					c3.327,3.66,4.99,8.281,4.99,13.862C-62.49-234.95-64.162-230.33-67.509-226.671z M-31.042-256.808h-3.948
					c-1.185,0-2.154,0.971-2.154,2.156v4.326c0,1.186,0.969,2.155,2.154,2.155h3.948c1.184,0,2.154-0.97,2.154-2.155v-4.326
					C-28.888-255.837-29.858-256.808-31.042-256.808z"/>
			</g>
		</g>
		<path fill="none" stroke="#FFFFFF" stroke-width="17" stroke-linecap="round" stroke-linejoin="round" d="M-340.601-195.423
			c0.977,0.518,59.866,6.697,66.158,7.352c22.363,2.325,45.125,5.119,67.637,6.322c11.562,0.62,23.116,1.395,34.882,1.843
			c33.491,1.276,72.794,0.165,105.961-3.856c41.938-5.086,83.65-12.818,122.272-25.659c32.791-10.901,49.223-17.791,79.111-32.068
			l21.645-10.693l2.334-2.6c-1.365,0.4-20.451,9.445-24.154,11.086c-106.516,47.227-221.796,50.574-337.042,50.02
			c-34.636-0.166-69.021-1.383-103.573-1.668C-316.823-195.44-329.247-196.011-340.601-195.423z"/>
		<path fill="none" stroke="#FFFFFF" stroke-width="17" stroke-linecap="round" stroke-linejoin="round" d="M121.411-123.085
			c2.729,0,4.088-1.406,4.088-4.217v-4.227h-11.582v-5.313h6.432c2.721,0,4.09-1.415,4.09-4.255v-4.253h-10.521v-5.15h7.494
			c2.729,0,4.088-1.405,4.088-4.226v-4.228H103.39v35.868H121.411L121.411-123.085z M89.163-127.701v-9.141h6.43
			c2.719,0,4.088-1.415,4.088-4.255v-4.253H89.163v-5.15h7.49c2.73,0,4.09-1.405,4.09-4.226v-4.228H78.634v31.252
			c0,3.093,1.758,4.634,5.27,4.616C87.403-123.103,89.163-124.635,89.163-127.701L89.163-127.701z M75.983-127.701
			c0,3.074-1.758,4.616-5.256,4.616h-5.27v-31.242c0-3.084,1.758-4.626,5.27-4.626h5.256V-127.701L75.983-127.701z M56.769-138.33
			l4.779,6.53c1.297,1.541,1.914,2.938,1.869,4.19c-0.055,1.251-0.689,2.366-1.904,3.364c-1.217,0.988-2.494,1.46-3.836,1.413
			c-1.352-0.045-2.721-0.87-4.117-2.483l-8.316-11.373v8.987c0,3.074-1.76,4.616-5.26,4.616h-5.27v-35.868h5.27h11.898
			c2.938,0,5.385,1.134,7.336,3.393s2.92,4.681,2.92,7.265C62.138-143.671,60.351-140.353,56.769-138.33L56.769-138.33z
			 M45.243-151.725v8.189h3.027c2.977,0,4.465-1.369,4.465-4.1c0-2.72-1.488-4.09-4.465-4.09H45.243L45.243-151.725z
			 M27.978-123.085c2.729,0,4.09-1.406,4.09-4.217v-4.227H20.485v-5.313h6.43c2.721,0,4.09-1.415,4.09-4.255v-4.253h-10.52v-5.15
			h7.493c2.729,0,4.09-1.405,4.09-4.226v-4.228H9.957v35.868H27.978L27.978-123.085z M-3.219-142.954v-11.373
			c0-3.084,1.75-4.626,5.261-4.626h5.259v31.252c0,3.074-1.751,4.616-5.259,4.616c-1.95,0-3.492-0.671-4.626-2.014l-11.789-14.028
			v11.426c0,3.074-1.759,4.616-5.26,4.616h-5.269v-35.84l5.269-0.028c2.249-0.018,3.854,0.709,4.834,2.187L-3.219-142.954
			L-3.219-142.954z M-31.64-123.085c2.731,0,4.091-1.406,4.091-4.217v-4.227H-39.13v-5.313h6.428c2.722,0,4.092-1.415,4.092-4.255
			v-4.253h-10.52v-5.15h7.49c2.731,0,4.091-1.405,4.091-4.226v-4.228h-22.108v35.868H-31.64L-31.64-123.085z M-61.529-150.5v22.853
			c0,3.075-1.751,4.617-5.26,4.617h-5.26v-27.47h-5.315c-2.83,0-4.244-1.405-4.244-4.226v-4.228h25.447
			c2.839,0,4.254,1.416,4.254,4.228c0,2.82-1.415,4.226-4.254,4.226H-61.529z"/>
		<path fill="none" stroke="#FFFFFF" stroke-width="17" stroke-linecap="round" stroke-linejoin="round" d="M-134.16-129.405
			l-1.016,2.711c-0.898,2.413-2.386,3.609-4.444,3.609c-2.068,0-3.546-0.626-4.444-1.896c-0.887-1.27-1.333-2.403-1.333-3.419
			c0-1.006,0.218-1.994,0.663-2.975l12.569-27.579h3.401c2.266,0,3.936,1.207,5.015,3.62l11.001,23.959
			c0.461,0.998,0.688,1.996,0.688,3.001c0,1.017-0.435,2.151-1.296,3.402c-0.871,1.26-2.358,1.886-4.453,1.886
			c-2.094,0-3.601-1.196-4.508-3.609l-1.006-2.711H-134.16L-134.16-129.405z M-95.463-122.978c-3.41,0-6.721-0.534-9.922-1.623
			c-3.211-1.079-4.807-2.873-4.807-5.387c0-2.521,0.627-4.307,1.887-5.367c5.558,2.476,9.549,3.627,11.961,3.455
			c2.422-0.182,3.628-0.798,3.628-1.859c0-1.052-0.645-1.877-1.941-2.483c-1.288-0.618-3.091-1.298-5.404-2.061
			c-2.313-0.761-3.755-1.434-4.345-1.996c-2.693-1.786-3.99-4.442-3.899-7.952c0.081-3.52,1.251-6.34,3.5-8.469
			c2.194-2.088,5.015-3.175,8.452-3.266c3.437-0.09,7.799,1.115,13.095,3.618c-0.897,5.297-2.693,7.581-5.369,6.874
			c-7.046-2.513-10.482-2.593-10.301-0.237c0,0.936,0.635,1.752,1.895,2.431c1.268,0.682,3.054,1.426,5.358,2.232
			c2.295,0.807,3.765,1.424,4.38,1.85c2.548,2.013,3.828,4.844,3.828,8.487c0,3.638-1.17,6.521-3.51,8.644
			C-89.226-124.01-92.055-122.978-95.463-122.978L-95.463-122.978z M-126.46-137.903l-2.286-6.222l-2.275,6.222H-126.46
			L-126.46-137.903z M-165.192-147.897l7.392-8.869c1.197-1.459,2.829-2.187,4.888-2.187h5.259v31.252
			c0,3.074-1.759,4.616-5.259,4.616c-3.51,0-5.26-1.542-5.26-4.616v-14.673l-7.019,8.243l-7.01-8.188v14.618
			c0,3.074-1.759,4.616-5.26,4.616h-5.269v-35.868h5.269c2.014,0.02,3.628,0.744,4.834,2.187L-165.192-147.897L-165.192-147.897z
			 M-191.419-138.33l4.779,6.53c1.297,1.541,1.914,2.938,1.869,4.19c-0.055,1.251-0.689,2.366-1.905,3.364
			c-1.216,0.988-2.493,1.46-3.836,1.413c-1.351-0.045-2.721-0.87-4.117-2.483l-8.316-11.373v8.987c0,3.074-1.758,4.616-5.259,4.616
			h-5.269v-35.868h5.269h11.898c2.938,0,5.386,1.134,7.336,3.393c1.95,2.259,2.919,4.681,2.919,7.265
			C-186.051-143.671-187.836-140.353-191.419-138.33L-191.419-138.33z M-202.946-151.725v8.189h3.029c2.975,0,4.463-1.369,4.463-4.1
			c0-2.72-1.488-4.09-4.463-4.09H-202.946L-202.946-151.725z M-215.732-141.359c0,5.542-1.796,10.03-5.396,13.459
			c-3.591,3.427-8.144,5.141-13.657,5.141c-5.505,0-10.039-1.714-13.604-5.141c-3.555-3.429-5.332-7.917-5.332-13.459
			c0-5.55,1.768-10.038,5.305-13.484c3.545-3.446,8.116-5.17,13.702-5.17c5.587,0,10.148,1.724,13.685,5.17
			C-217.5-151.397-215.732-146.909-215.732-141.359L-215.732-141.359z M-228.328-148.032c-1.587-1.751-3.719-2.63-6.375-2.63
			c-2.658,0-4.788,0.889-6.402,2.647c-1.616,1.759-2.412,3.98-2.412,6.665s0.796,4.899,2.412,6.629
			c1.614,1.742,3.744,2.604,6.392,2.604c2.648,0,4.771-0.87,6.377-2.63c1.604-1.751,2.402-3.964,2.402-6.638
			C-225.934-144.063-226.733-146.273-228.328-148.032L-228.328-148.032z M-267.558-127.701v-9.141h6.429
			c2.721,0,4.09-1.415,4.09-4.255v-4.253h-10.519v-5.15h7.49c2.73,0,4.09-1.405,4.09-4.226v-4.228h-22.109v31.252
			c0,3.093,1.76,4.634,5.269,4.616C-269.318-123.103-267.558-124.635-267.558-127.701L-267.558-127.701z M-284.826-123.085
			c2.73,0,4.09-1.406,4.09-4.217v-4.227h-11.581v-5.313h6.43c2.72,0,4.089-1.415,4.089-4.255v-4.253h-10.52v-5.15h7.49
			c2.73,0,4.09-1.405,4.09-4.226v-4.228h-22.109v35.868H-284.826L-284.826-123.085z M-311.531-138.33l4.778,6.53
			c1.296,1.541,1.915,2.938,1.869,4.19c-0.055,1.251-0.689,2.366-1.904,3.364c-1.216,0.988-2.495,1.46-3.836,1.413
			c-1.352-0.045-2.721-0.87-4.118-2.483l-8.315-11.373v8.987c0,3.074-1.759,4.616-5.26,4.616h-5.27v-35.868h5.27h11.898
			c2.938,0,5.387,1.134,7.336,3.393c1.95,2.259,2.92,4.681,2.92,7.265C-306.164-143.671-307.951-140.353-311.531-138.33
			L-311.531-138.33z M-323.058-151.725v8.189h3.029c2.975,0,4.461-1.369,4.461-4.1c0-2.72-1.486-4.09-4.461-4.09H-323.058z"/>
	</g>
	<g>
		<linearGradient id="SVGID_1_" gradientUnits="userSpaceOnUse" x1="74.3066" y1="-204.2617" x2="74.3066" y2="-309.0568">
			<stop  offset="0" style="stop-color:#1D4ED8"/>
			<stop  offset="1" style="stop-color:#3B82F6"/>
		</linearGradient>
		<path fill-rule="evenodd" clip-rule="evenodd" fill="url(#SVGID_1_)" d="M35.362-233.682c4.197,0.653,3.945-0.148,7.523,2.002
			c2.184,1.313,3.619,2.861,4.949,4.877l2.402,16.919c0.943-0.511,2.691-1.882,3.609-2.572c1.791-1.345,3.061-0.92,5.383-1.397
			c1.816-0.374,3.221-0.903,4.998-1.436c1.83-0.544,9.406-1.223,11.467-1.759c1.52-0.396,2.445-1.3,4.764-1.967
			c6.525-1.88,1.361,0.601,8.973-4.586v-46.203l23.822-0.093l-19.098-8.315c-18.688-8.269-39.797-17.412-58.795-25.214
			L35.362-233.682z"/>
		<linearGradient id="SVGID_2_" gradientUnits="userSpaceOnUse" x1="-286.585" y1="-197.1719" x2="125.8604" y2="-197.1719">
			<stop  offset="0" style="stop-color:#FF3400"/>
			<stop  offset="1" style="stop-color:#F97316"/>
		</linearGradient>
		<path fill-rule="evenodd" clip-rule="evenodd" fill="url(#SVGID_2_)" d="M-261.159-187.618
			c17.408,2.918,34.493,6.278,52.279,8.768c8.884,1.242,17.761,2.223,26.71,3.337c52.647,6.554,117.374,5.107,170.331-3.545
			c33.468-5.468,64.545-13.784,95.742-25.525c7.377-2.775,14.535-5.684,21.955-8.531c3.645-1.398,7.029-3.086,10.662-4.569
			c1.82-0.744,3.482-1.557,5.199-2.271l2.316-0.729c0.945-0.459,1.543-0.857,1.824-2.229c-6.896,2.645-14.473,5.721-21.334,8.147
			c-7.221,2.556-14.291,4.863-21.813,7.297C37.323-192.786-21.065-185.557-68.95-185.136c-48.943,0.43-90.63-2.055-138.524-6.702
			c-2.261-0.219-4.53-0.433-6.769-0.652c-6.2-0.607-11.323,0.71-13.524,0.649c-1.214-0.033-2.279-0.332-3.377-0.33
			c-1.017,0.001-1.953,0.265-3.04,0.317l-33.584-0.25l-13.12,0.245c-3.451-0.173-4.003-1.265-5.697-0.782L-261.159-187.618z"/>
		<g>
			<g>
				
					<linearGradient id="SVGID_3_" gradientUnits="userSpaceOnUse" x1="-343.5234" y1="-254.7295" x2="28.1729" y2="-254.7295" gradientTransform="matrix(1 0 0 1 7.2749 2.1201)">
					<stop  offset="0" style="stop-color:#FF3400"/>
					<stop  offset="1" style="stop-color:#F97316"/>
				</linearGradient>
				<path fill="url(#SVGID_3_)" d="M-19.328-257.873h5.797c1.741,0,3.167-1.425,3.167-3.167v-6.354c0-1.74-1.426-3.166-3.167-3.166
					h-5.797c-1.741,0-3.166,1.426-3.166,3.166v6.354C-22.493-259.298-21.069-257.873-19.328-257.873z M-283.127-277.186h-53.122
					v8.816c0,5.878,2.957,8.817,8.872,8.817h11.091v57.334h10.979c7.319,0,10.979-3.215,10.979-9.647v-47.687h11.201
					c5.914,0,8.872-2.939,8.872-8.817S-277.213-277.186-283.127-277.186z M-39.035-269.38h3.985c1.198,0,2.178-0.979,2.178-2.176
					v-4.37c0-1.197-0.979-2.177-2.178-2.177h-3.985c-1.198,0-2.176,0.979-2.176,2.177v4.37
					C-41.211-270.358-40.233-269.38-39.035-269.38z M17.246-284.9l0.013-12.644c-1.518-0.44-10.776-0.799-11.976,0.044
					c-1.531,1.073-0.799,11.18-0.458,11.976C6.385-283.616,14.681-284.757,17.246-284.9z M35.448-287.859l-0.092-15.627
					c-15.022,0-13.362-1.335-13.362,7.7C21.995-286.21,20.342-287.838,35.448-287.859z M2.93-259.49
					c2.125,0,9.487,0.262,10.989-0.252c2.781-0.955,2.059-5.23,2.059-8.612c0-2.012,0.229-9.527-0.19-10.839
					c-0.989-3.09-5.007-2.287-8.455-2.287c-2.221,0-9.208-0.273-10.781,0.162c-3.446,0.954-2.563,4.91-2.563,8.563
					C-6.011-258.682-7.404-259.49,2.93-259.49z M-17.781-279.188h3.987c1.196,0,2.176-0.979,2.176-2.178v-4.37
					c0-1.196-0.98-2.176-2.176-2.176h-3.987c-1.196,0-2.176,0.979-2.176,2.176v4.37C-19.958-280.168-18.978-279.188-17.781-279.188z
					 M-0.794-232.921c13.534,0,12.821,1.307,12.821-9.018c0-1.963,0.244-9.566-0.261-10.888c-1.096-2.858-5.604-2.085-8.836-2.085
					c-2.376,0-9.157-0.437-10.842,0.341c-2.896,1.332-2.05,5.225-2.05,8.906C-9.962-232.09-11.286-232.921-0.794-232.921z
					 M-230.699-279.404c-11.664,0-21.191,3.598-28.585,10.785c-7.394,7.191-11.09,16.572-11.09,28.142
					c0,11.57,3.716,20.933,11.146,28.085c7.431,7.153,16.894,10.73,28.391,10.73c11.497,0,20.996-3.577,28.501-10.73
					c7.503-7.152,11.257-16.515,11.257-28.085c0-11.569-3.688-20.95-11.063-28.142
					C-209.516-275.807-219.036-279.404-230.699-279.404z M-217.391-226.671c-3.346,3.66-7.782,5.489-13.308,5.489
					c-5.526,0-9.972-1.81-13.336-5.434c-3.364-3.622-5.045-8.234-5.045-13.835s1.681-10.239,5.045-13.917
					c3.364-3.678,7.819-5.518,13.364-5.518c5.545,0,9.981,1.83,13.308,5.489c3.327,3.66,4.99,8.281,4.99,13.862
					C-212.373-234.95-214.046-230.33-217.391-226.671z M18.848-260.588c-4.763,0.689-3.498,7.185-3.498,13.23
					c0,4.695-1.44,12.588,3.184,13.581c2.791,0.599,13.334,0.135,16.915,0.135v-27.017
					C31.116-260.658,22.701-261.144,18.848-260.588z M-8.92-226.367c-2.472,0-9.666-0.371-11.459,0.263
					c-3.424,1.207-2.507,4.296-2.507,9.565c0,14.814-1.47,13.958,9.903,13.958c14.852,0,13.88,1.402,13.88-9.894
					C0.896-227.11,2.416-226.367-8.92-226.367z M9.008-229.607c-6.79,0.016-5.325,5.156-5.325,11.037
					c0,18.394-2.034,16.168,16.848,15.984c0-5.469-0.854-18.377,1.42-22.358l3.09-4.562
					C21.022-230.034,13.405-229.617,9.008-229.607z M20.004-267.661c0.078,5.652,4.879,3.858,15.444,3.858l-0.164-19.294
					C17.943-283.097,19.749-286.064,20.004-267.661z M-35.68-220.304h-3.79c-1.139,0-2.071,0.931-2.071,2.07v4.155
					c0,1.14,0.933,2.071,2.071,2.071h3.79c1.14,0,2.071-0.932,2.071-2.071v-4.155C-33.609-219.373-34.541-220.304-35.68-220.304z
					 M-14.412-233.775v-6.957c0-1.905-1.56-3.463-3.465-3.463h-6.345c-1.905,0-3.463,1.558-3.463,3.463v6.957
					c0,1.904,1.559,3.463,3.463,3.463h6.345C-15.972-230.313-14.412-231.871-14.412-233.775z M-153.095-277.186h-33.271v74.857
					h33.271c12.234-1.404,20.664-8.168,25.285-20.295c2.292-5.619,3.438-11.32,3.438-17.105s-1.147-11.507-3.438-17.162
					C-132.431-269.015-140.861-275.781-153.095-277.186z M-160.415-217.633l-3.993-0.11v-44.36h3.993
					c10.424,0.37,15.654,7.598,15.691,21.683C-144.687-226.338-149.917-218.741-160.415-217.633z M-52.259-268.619
					c-7.375-7.188-16.895-10.785-28.558-10.785c-11.663,0-21.191,3.598-28.584,10.785c-7.394,7.191-11.09,16.572-11.09,28.142
					c0,11.57,3.716,20.933,11.146,28.085c7.43,7.153,16.894,10.73,28.39,10.73s20.998-3.577,28.502-10.73
					c7.503-7.152,11.257-16.515,11.257-28.085C-41.196-252.047-44.883-261.428-52.259-268.619z M-67.509-226.671
					c-3.345,3.66-7.782,5.489-13.308,5.489c-5.526,0-9.972-1.81-13.336-5.434c-3.363-3.622-5.045-8.234-5.045-13.835
					s1.682-10.239,5.045-13.917c3.364-3.678,7.82-5.518,13.365-5.518c5.544,0,9.981,1.83,13.308,5.489
					c3.327,3.66,4.99,8.281,4.99,13.862C-62.49-234.95-64.162-230.33-67.509-226.671z M-31.042-256.808h-3.948
					c-1.185,0-2.154,0.971-2.154,2.156v4.326c0,1.186,0.969,2.155,2.154,2.155h3.948c1.184,0,2.154-0.97,2.154-2.155v-4.326
					C-28.888-255.837-29.858-256.808-31.042-256.808z"/>
			</g>
		</g>
		<path fill-rule="evenodd" clip-rule="evenodd" fill="#1D4ED8" d="M-340.601-195.423c0.977,0.518,59.866,6.697,66.158,7.352
			c22.363,2.325,45.125,5.119,67.637,6.322c11.562,0.62,23.116,1.395,34.882,1.843c33.491,1.276,72.794,0.165,105.961-3.856
			c41.938-5.086,83.65-12.818,122.272-25.659c32.791-10.901,49.223-17.791,79.111-32.068l21.645-10.693l2.334-2.6
			c-1.365,0.4-20.451,9.445-24.154,11.086c-106.516,47.227-221.796,50.574-337.042,50.02c-34.636-0.166-69.021-1.383-103.573-1.668
			C-316.823-195.44-329.247-196.011-340.601-195.423z"/>
		<path fill="#838383" d="M121.411-123.085c2.729,0,4.088-1.406,4.088-4.217v-4.227h-11.582v-5.313h6.432
			c2.721,0,4.09-1.415,4.09-4.255v-4.253h-10.521v-5.15h7.494c2.729,0,4.088-1.405,4.088-4.226v-4.228H103.39v35.868H121.411
			L121.411-123.085z M89.163-127.701v-9.141h6.43c2.719,0,4.088-1.415,4.088-4.255v-4.253H89.163v-5.15h7.49
			c2.73,0,4.09-1.405,4.09-4.226v-4.228H78.634v31.252c0,3.093,1.758,4.634,5.27,4.616
			C87.403-123.103,89.163-124.635,89.163-127.701L89.163-127.701z M75.983-127.701c0,3.074-1.758,4.616-5.256,4.616h-5.27v-31.242
			c0-3.084,1.758-4.626,5.27-4.626h5.256V-127.701L75.983-127.701z M56.769-138.33l4.779,6.53c1.297,1.541,1.914,2.938,1.869,4.19
			c-0.055,1.251-0.689,2.366-1.904,3.364c-1.217,0.988-2.494,1.46-3.836,1.413c-1.352-0.045-2.721-0.87-4.117-2.483l-8.316-11.373
			v8.987c0,3.074-1.76,4.616-5.26,4.616h-5.27v-35.868h5.27h11.898c2.938,0,5.385,1.134,7.336,3.393s2.92,4.681,2.92,7.265
			C62.138-143.671,60.351-140.353,56.769-138.33L56.769-138.33z M45.243-151.725v8.189h3.027c2.977,0,4.465-1.369,4.465-4.1
			c0-2.72-1.488-4.09-4.465-4.09H45.243L45.243-151.725z M27.978-123.085c2.729,0,4.09-1.406,4.09-4.217v-4.227H20.485v-5.313h6.43
			c2.721,0,4.09-1.415,4.09-4.255v-4.253h-10.52v-5.15h7.493c2.729,0,4.09-1.405,4.09-4.226v-4.228H9.957v35.868H27.978
			L27.978-123.085z M-3.219-142.954v-11.373c0-3.084,1.75-4.626,5.261-4.626h5.259v31.252c0,3.074-1.751,4.616-5.259,4.616
			c-1.95,0-3.492-0.671-4.626-2.014l-11.789-14.028v11.426c0,3.074-1.759,4.616-5.26,4.616h-5.269v-35.84l5.269-0.028
			c2.249-0.018,3.854,0.709,4.834,2.187L-3.219-142.954L-3.219-142.954z M-31.64-123.085c2.731,0,4.091-1.406,4.091-4.217v-4.227
			H-39.13v-5.313h6.428c2.722,0,4.092-1.415,4.092-4.255v-4.253h-10.52v-5.15h7.49c2.731,0,4.091-1.405,4.091-4.226v-4.228h-22.108
			v35.868H-31.64L-31.64-123.085z M-61.529-150.5v22.853c0,3.075-1.751,4.617-5.26,4.617h-5.26v-27.47h-5.315
			c-2.83,0-4.244-1.405-4.244-4.226v-4.228h25.447c2.839,0,4.254,1.416,4.254,4.228c0,2.82-1.415,4.226-4.254,4.226H-61.529z"/>
		<path fill="#4B4B4B" d="M-134.16-129.405l-1.016,2.711c-0.898,2.413-2.386,3.609-4.444,3.609c-2.068,0-3.546-0.626-4.444-1.896
			c-0.887-1.27-1.333-2.403-1.333-3.419c0-1.006,0.218-1.994,0.663-2.975l12.569-27.579h3.401c2.266,0,3.936,1.207,5.015,3.62
			l11.001,23.959c0.461,0.998,0.688,1.996,0.688,3.001c0,1.017-0.435,2.151-1.296,3.402c-0.871,1.26-2.358,1.886-4.453,1.886
			c-2.094,0-3.601-1.196-4.508-3.609l-1.006-2.711H-134.16L-134.16-129.405z M-95.463-122.978c-3.41,0-6.721-0.534-9.922-1.623
			c-3.211-1.079-4.807-2.873-4.807-5.387c0-2.521,0.627-4.307,1.887-5.367c5.558,2.476,9.549,3.627,11.961,3.455
			c2.422-0.182,3.628-0.798,3.628-1.859c0-1.052-0.645-1.877-1.941-2.483c-1.288-0.618-3.091-1.298-5.404-2.061
			c-2.313-0.761-3.755-1.434-4.345-1.996c-2.693-1.786-3.99-4.442-3.899-7.952c0.081-3.52,1.251-6.34,3.5-8.469
			c2.194-2.088,5.015-3.175,8.452-3.266c3.437-0.09,7.799,1.115,13.095,3.618c-0.897,5.297-2.693,7.581-5.369,6.874
			c-7.046-2.513-10.482-2.593-10.301-0.237c0,0.936,0.635,1.752,1.895,2.431c1.268,0.682,3.054,1.426,5.358,2.232
			c2.295,0.807,3.765,1.424,4.38,1.85c2.548,2.013,3.828,4.844,3.828,8.487c0,3.638-1.17,6.521-3.51,8.644
			C-89.226-124.01-92.055-122.978-95.463-122.978L-95.463-122.978z M-126.46-137.903l-2.286-6.222l-2.275,6.222H-126.46
			L-126.46-137.903z M-165.192-147.897l7.392-8.869c1.197-1.459,2.829-2.187,4.888-2.187h5.259v31.252
			c0,3.074-1.759,4.616-5.259,4.616c-3.51,0-5.26-1.542-5.26-4.616v-14.673l-7.019,8.243l-7.01-8.188v14.618
			c0,3.074-1.759,4.616-5.26,4.616h-5.269v-35.868h5.269c2.014,0.02,3.628,0.744,4.834,2.187L-165.192-147.897L-165.192-147.897z
			 M-191.419-138.33l4.779,6.53c1.297,1.541,1.914,2.938,1.869,4.19c-0.055,1.251-0.689,2.366-1.905,3.364
			c-1.216,0.988-2.493,1.46-3.836,1.413c-1.351-0.045-2.721-0.87-4.117-2.483l-8.316-11.373v8.987c0,3.074-1.758,4.616-5.259,4.616
			h-5.269v-35.868h5.269h11.898c2.938,0,5.386,1.134,7.336,3.393c1.95,2.259,2.919,4.681,2.919,7.265
			C-186.051-143.671-187.836-140.353-191.419-138.33L-191.419-138.33z M-202.946-151.725v8.189h3.029c2.975,0,4.463-1.369,4.463-4.1
			c0-2.72-1.488-4.09-4.463-4.09H-202.946L-202.946-151.725z M-215.732-141.359c0,5.542-1.796,10.03-5.396,13.459
			c-3.591,3.427-8.144,5.141-13.657,5.141c-5.505,0-10.039-1.714-13.604-5.141c-3.555-3.429-5.332-7.917-5.332-13.459
			c0-5.55,1.768-10.038,5.305-13.484c3.545-3.446,8.116-5.17,13.702-5.17c5.587,0,10.148,1.724,13.685,5.17
			C-217.5-151.397-215.732-146.909-215.732-141.359L-215.732-141.359z M-228.328-148.032c-1.587-1.751-3.719-2.63-6.375-2.63
			c-2.658,0-4.788,0.889-6.402,2.647c-1.616,1.759-2.412,3.98-2.412,6.665s0.796,4.899,2.412,6.629
			c1.614,1.742,3.744,2.604,6.392,2.604c2.648,0,4.771-0.87,6.377-2.63c1.604-1.751,2.402-3.964,2.402-6.638
			C-225.934-144.063-226.733-146.273-228.328-148.032L-228.328-148.032z M-267.558-127.701v-9.141h6.429
			c2.721,0,4.09-1.415,4.09-4.255v-4.253h-10.519v-5.15h7.49c2.73,0,4.09-1.405,4.09-4.226v-4.228h-22.109v31.252
			c0,3.093,1.76,4.634,5.269,4.616C-269.318-123.103-267.558-124.635-267.558-127.701L-267.558-127.701z M-284.826-123.085
			c2.73,0,4.09-1.406,4.09-4.217v-4.227h-11.581v-5.313h6.43c2.72,0,4.089-1.415,4.089-4.255v-4.253h-10.52v-5.15h7.49
			c2.73,0,4.09-1.405,4.09-4.226v-4.228h-22.109v35.868H-284.826L-284.826-123.085z M-311.531-138.33l4.778,6.53
			c1.296,1.541,1.915,2.938,1.869,4.19c-0.055,1.251-0.689,2.366-1.904,3.364c-1.216,0.988-2.495,1.46-3.836,1.413
			c-1.352-0.045-2.721-0.87-4.118-2.483l-8.315-11.373v8.987c0,3.074-1.759,4.616-5.26,4.616h-5.27v-35.868h5.27h11.898
			c2.938,0,5.387,1.134,7.336,3.393c1.95,2.259,2.92,4.681,2.92,7.265C-306.164-143.671-307.951-140.353-311.531-138.33
			L-311.531-138.33z M-323.058-151.725v8.189h3.029c2.975,0,4.461-1.369,4.461-4.1c0-2.72-1.486-4.09-4.461-4.09H-323.058z"/>
	</g>
</g>
</svg>
