<?xml version="1.0" encoding="utf-8"?>
<!-- Generator: Adobe Illustrator 16.0.0, SVG Export Plug-In . SVG Version: 6.00 Build 0)  -->
<!DOCTYPE svg PUBLIC "-//W3C//DTD SVG 1.1//EN" "http://www.w3.org/Graphics/SVG/1.1/DTD/svg11.dtd">
<svg version="1.1" id="Capa_1" xmlns="http://www.w3.org/2000/svg" xmlns:xlink="http://www.w3.org/1999/xlink" x="0px" y="0px"
	 width="124.455px" height="45px" viewBox="6.914 2.5 124.455 45" enable-background="new 6.914 2.5 124.455 45"
	 xml:space="preserve">
<g>
	
		<linearGradient id="SVGID_1_" gradientUnits="userSpaceOnUse" x1="-67.2939" y1="-411.5137" x2="-67.2939" y2="-385.4287" gradientTransform="matrix(1 0 0 -1 177.4805 -384.2988)">
		<stop  offset="0" style="stop-color:#1D4ED8"/>
		<stop  offset="1" style="stop-color:#3B82F6"/>
	</linearGradient>
	<path fill="url(#SVGID_1_)" d="M100.494,19.891c1.045,0.164,0.981-0.036,1.874,0.498c0.541,0.328,0.901,0.713,1.232,1.214
		l0.598,4.212c0.232-0.128,0.669-0.469,0.896-0.641c0.445-0.336,0.763-0.229,1.34-0.348c0.452-0.094,0.803-0.226,1.243-0.358
		c0.455-0.134,2.342-0.304,2.853-0.438c0.379-0.098,0.609-0.323,1.187-0.49c1.625-0.468,0.342,0.149,2.234-1.142V10.899l5.929-0.023
		l-4.753-2.07c-4.651-2.057-9.905-4.334-14.634-6.276L100.494,19.891L100.494,19.891z"/>
	
		<linearGradient id="SVGID_2_" gradientUnits="userSpaceOnUse" x1="-157.1255" y1="-413.2764" x2="-54.4639" y2="-413.2764" gradientTransform="matrix(1 0 0 -1 177.4805 -384.2988)">
		<stop  offset="0" style="stop-color:#FF3400"/>
		<stop  offset="1" style="stop-color:#F97316"/>
	</linearGradient>
	<path fill="url(#SVGID_2_)" d="M26.688,31.356c4.333,0.727,8.586,1.563,13.012,2.182c2.21,0.311,4.42,0.553,6.648,0.831
		c13.104,1.63,29.215,1.27,42.396-0.884c8.331-1.358,16.068-3.43,23.833-6.353c1.837-0.688,3.616-1.414,5.463-2.123
		c0.909-0.349,1.75-0.768,2.653-1.137c0.452-0.187,0.867-0.389,1.294-0.564l0.578-0.183c0.235-0.116,0.384-0.212,0.452-0.555
		c-1.716,0.659-3.602,1.424-5.309,2.028c-1.799,0.637-3.559,1.21-5.431,1.816c-11.296,3.654-25.831,5.455-37.75,5.557
		c-12.183,0.109-22.558-0.509-34.479-1.666c-0.563-0.056-1.127-0.107-1.687-0.162c-1.542-0.152-2.818,0.176-3.366,0.162
		c-0.302-0.008-0.567-0.083-0.84-0.083c-0.254,0-0.487,0.067-0.756,0.08l-8.36-0.064L21.772,30.3
		c-0.858-0.043-0.998-0.314-1.417-0.195L26.688,31.356z"/>
	<g>
		<g>
			
				<linearGradient id="SVGID_3_" gradientUnits="userSpaceOnUse" x1="-176.7578" y1="-397.3604" x2="-84.2378" y2="-397.3604" gradientTransform="matrix(1 0 0 -1 184.7554 -382.1797)">
				<stop  offset="0" style="stop-color:#FF3400"/>
				<stop  offset="1" style="stop-color:#F97316"/>
			</linearGradient>
			<path fill="url(#SVGID_3_)" d="M86.883,13.869h1.442c0.434,0,0.787-0.355,0.787-0.788V11.5c0-0.433-0.354-0.788-0.787-0.788
				h-1.442c-0.434,0-0.788,0.355-0.788,0.788v1.581C86.094,13.515,86.449,13.869,86.883,13.869z M21.22,9.062H7.998v2.195
				c0,1.462,0.736,2.194,2.208,2.194h2.761v14.271H15.7c1.82,0,2.732-0.799,2.732-2.4V13.45h2.788c1.471,0,2.207-0.73,2.207-2.194
				C23.427,9.792,22.692,9.062,21.22,9.062z M81.977,11.006h0.992c0.3,0,0.542-0.244,0.542-0.541V9.375
				c0-0.297-0.244-0.541-0.542-0.541h-0.992c-0.3,0-0.541,0.244-0.541,0.541v1.089C81.436,10.762,81.678,11.006,81.977,11.006z
				 M95.986,7.142l0.003-3.149c-0.378-0.11-2.684-0.198-2.979,0.011c-0.384,0.269-0.199,2.784-0.114,2.981
				C93.282,7.463,95.348,7.178,95.986,7.142z M100.518,6.406l-0.024-3.889c-3.738,0-3.325-0.332-3.325,1.917
				C97.168,6.817,96.756,6.412,100.518,6.406z M92.423,13.467c0.528,0,2.362,0.064,2.735-0.063c0.692-0.238,0.511-1.302,0.511-2.143
				c0-0.5,0.058-2.372-0.046-2.698c-0.248-0.77-1.246-0.57-2.105-0.57c-0.554,0-2.292-0.068-2.684,0.041
				c-0.858,0.238-0.637,1.221-0.637,2.133C90.195,13.669,89.85,13.467,92.423,13.467z M87.267,8.563h0.993
				c0.299,0,0.541-0.244,0.541-0.541V6.935c0-0.297-0.244-0.542-0.541-0.542h-0.993c-0.296,0-0.54,0.244-0.54,0.542v1.088
				C86.726,8.32,86.968,8.563,87.267,8.563z M91.494,20.081c3.37,0,3.191,0.324,3.191-2.245c0-0.488,0.061-2.38-0.065-2.71
				c-0.272-0.712-1.394-0.519-2.198-0.519c-0.589,0-2.279-0.109-2.697,0.085c-0.722,0.332-0.51,1.3-0.51,2.217
				C89.214,20.288,88.884,20.081,91.494,20.081z M34.27,8.511c-2.905,0-5.275,0.895-7.116,2.684c-1.839,1.79-2.76,4.125-2.76,7.005
				c0,2.88,0.925,5.21,2.775,6.989c1.85,1.782,4.206,2.673,7.067,2.673c2.861,0,5.226-0.891,7.094-2.673
				c1.867-1.78,2.802-4.109,2.802-6.989c0-2.879-0.917-5.215-2.755-7.005C39.542,9.405,37.172,8.511,34.27,8.511z M37.583,21.637
				c-0.833,0.91-1.939,1.367-3.312,1.367c-1.375,0-2.483-0.452-3.319-1.354c-0.838-0.901-1.257-2.05-1.257-3.444
				c0-1.395,0.418-2.55,1.257-3.465c0.837-0.915,1.946-1.374,3.326-1.374s2.484,0.456,3.313,1.367
				c0.829,0.91,1.243,2.061,1.243,3.45C38.831,19.576,38.414,20.725,37.583,21.637z M96.385,13.193
				c-1.185,0.173-0.87,1.79-0.87,3.295c0,1.169-0.358,3.133,0.792,3.379c0.695,0.149,3.318,0.034,4.211,0.034v-6.724
				C99.438,13.177,97.343,13.055,96.385,13.193z M89.472,21.713c-0.615,0-2.406-0.093-2.85,0.064c-0.854,0.3-0.626,1.069-0.626,2.38
				c0,3.688-0.365,3.475,2.465,3.475c3.697,0,3.455,0.35,3.455-2.462C91.916,21.528,92.294,21.713,89.472,21.713z M93.936,20.905
				c-1.69,0.004-1.326,1.283-1.326,2.747c0,4.58-0.507,4.026,4.193,3.979c0-1.359-0.212-4.572,0.353-5.563l0.771-1.137
				C96.925,20.799,95.028,20.901,93.936,20.905z M96.672,11.433c0.021,1.406,1.216,0.96,3.846,0.96l-0.042-4.802
				C96.158,7.591,96.608,6.853,96.672,11.433z M82.812,23.219h-0.942c-0.283,0-0.517,0.233-0.517,0.515v1.034
				c0,0.284,0.233,0.515,0.517,0.515h0.942c0.284,0,0.517-0.231,0.517-0.515v-1.034C83.328,23.452,83.096,23.219,82.812,23.219z
				 M88.106,19.868v-1.732c0-0.474-0.39-0.862-0.864-0.862h-1.578c-0.474,0-0.862,0.388-0.862,0.862v1.732
				c0,0.473,0.39,0.862,0.862,0.862h1.578C87.717,20.729,88.106,20.342,88.106,19.868z M53.586,9.062h-8.28v18.633h8.281
				c3.046-0.35,5.144-2.033,6.293-5.052c0.571-1.398,0.857-2.818,0.857-4.258c0-1.44-0.286-2.864-0.857-4.272
				C58.73,11.096,56.632,9.412,53.586,9.062z M51.765,23.887l-0.995-0.028V12.816h0.995c2.593,0.092,3.896,1.891,3.906,5.397
				C55.679,21.719,54.378,23.61,51.765,23.887z M78.688,11.195c-1.837-1.789-4.206-2.684-7.109-2.684
				c-2.902,0-5.274,0.895-7.114,2.684c-1.841,1.79-2.76,4.125-2.76,7.004c0,2.88,0.924,5.21,2.774,6.99
				c1.849,1.782,4.204,2.673,7.065,2.673c2.862,0,5.229-0.891,7.096-2.673c1.867-1.78,2.802-4.109,2.802-6.99
				C81.44,15.32,80.521,12.983,78.688,11.195z M74.889,21.637c-0.832,0.91-1.937,1.367-3.312,1.367s-2.484-0.452-3.319-1.354
				c-0.837-0.901-1.257-2.05-1.257-3.444c0-1.395,0.42-2.55,1.257-3.465c0.835-0.915,1.946-1.374,3.326-1.374
				c1.381,0,2.484,0.456,3.313,1.367c0.827,0.91,1.242,2.061,1.242,3.45C76.139,19.576,75.723,20.725,74.889,21.637z M83.967,14.136
				h-0.983c-0.295,0-0.536,0.242-0.536,0.536v1.078c0,0.296,0.241,0.536,0.536,0.536h0.983c0.295,0,0.535-0.24,0.535-0.536v-1.079
				C84.502,14.376,84.262,14.136,83.967,14.136z"/>
		</g>
	</g>
	<path fill="#1D4ED8" d="M6.914,29.414c0.243,0.129,14.901,1.666,16.467,1.83c5.566,0.578,11.232,1.274,16.835,1.572
		c2.88,0.155,5.755,0.351,8.682,0.458c8.337,0.319,18.121,0.042,26.375-0.958c10.439-1.266,20.822-3.191,30.436-6.386
		c8.161-2.714,12.251-4.43,19.691-7.983l5.386-2.663l0.583-0.647c-0.341,0.099-5.091,2.351-6.013,2.76
		c-26.513,11.755-55.206,12.59-83.892,12.453c-8.623-0.042-17.18-0.347-25.781-0.417C12.833,29.411,9.74,29.269,6.914,29.414z"/>
	<path fill="#838383" d="M121.913,47.42c0.68,0,1.018-0.35,1.018-1.051v-1.05h-2.883v-1.324h1.602c0.677,0,1.018-0.352,1.018-1.059
		v-1.058h-2.619v-1.283h1.865c0.68,0,1.018-0.349,1.018-1.052v-1.053h-5.504v8.929H121.913L121.913,47.42z M113.887,46.27v-2.274
		h1.601c0.677,0,1.019-0.352,1.019-1.059v-1.058h-2.619v-1.283h1.864c0.68,0,1.018-0.349,1.018-1.052v-1.053h-5.505v7.778
		c0,0.77,0.438,1.154,1.313,1.15C113.448,47.415,113.887,47.033,113.887,46.27L113.887,46.27z M110.604,46.27
		c0,0.767-0.435,1.15-1.305,1.15h-1.313v-7.777c0-0.768,0.438-1.151,1.313-1.151h1.305V46.27L110.604,46.27z M105.824,43.626
		l1.189,1.625c0.322,0.381,0.476,0.73,0.466,1.044c-0.014,0.31-0.171,0.588-0.475,0.835c-0.302,0.248-0.618,0.364-0.954,0.354
		c-0.337-0.011-0.68-0.218-1.026-0.62l-2.07-2.829v2.235c0,0.767-0.438,1.15-1.31,1.15h-1.312v-8.931h1.312h2.962
		c0.73,0,1.341,0.284,1.827,0.846c0.484,0.562,0.727,1.166,0.727,1.81C107.16,42.297,106.715,43.122,105.824,43.626L105.824,43.626z
		 M102.954,40.291v2.04h0.755c0.738,0,1.108-0.341,1.108-1.02c0-0.681-0.37-1.018-1.108-1.018h-0.755V40.291z M98.656,47.42
		c0.68,0,1.018-0.35,1.018-1.051v-1.05h-2.881v-1.324h1.599c0.678,0,1.017-0.352,1.017-1.059v-1.058h-2.615v-1.283h1.863
		c0.679,0,1.018-0.349,1.018-1.052v-1.053h-5.503v8.929H98.656L98.656,47.42z M90.893,42.474v-2.831
		c0-0.768,0.435-1.151,1.309-1.151h1.308v7.778c0,0.767-0.436,1.15-1.308,1.15c-0.486,0-0.869-0.168-1.151-0.502l-2.934-3.49v2.841
		c0,0.767-0.438,1.148-1.309,1.148h-1.312v-8.922l1.312-0.006c0.56-0.005,0.959,0.176,1.203,0.542L90.893,42.474L90.893,42.474z
		 M83.817,47.42c0.68,0,1.019-0.35,1.019-1.051v-1.05h-2.884v-1.324h1.601c0.678,0,1.019-0.352,1.019-1.059v-1.058h-2.619v-1.283
		h1.864c0.679,0,1.017-0.349,1.017-1.052v-1.053H79.33v8.929H83.817L83.817,47.42z M76.377,40.595v5.688
		c0,0.768-0.436,1.149-1.31,1.149h-1.309v-6.838h-1.322c-0.704,0-1.058-0.348-1.058-1.051V38.49h6.335
		c0.707,0,1.059,0.353,1.059,1.054c0,0.703-0.353,1.051-1.059,1.051H76.377z"/>
	<path fill="#4B4B4B" d="M58.3,45.847l-0.255,0.675c-0.222,0.6-0.593,0.898-1.105,0.898c-0.515,0-0.883-0.156-1.105-0.471
		c-0.222-0.316-0.333-0.598-0.333-0.852c0-0.251,0.054-0.497,0.164-0.741l3.129-6.864h0.847c0.563,0,0.978,0.3,1.247,0.901
		l2.739,5.963c0.115,0.251,0.171,0.497,0.171,0.747c0,0.253-0.11,0.536-0.323,0.848c-0.216,0.313-0.586,0.469-1.107,0.469
		c-0.523,0-0.896-0.299-1.123-0.9l-0.252-0.674L58.3,45.847L58.3,45.847z M67.931,47.445c-0.848,0-1.672-0.131-2.47-0.402
		c-0.798-0.269-1.195-0.715-1.195-1.341c0-0.627,0.156-1.07,0.469-1.337c1.383,0.62,2.375,0.904,2.977,0.862
		c0.602-0.046,0.904-0.199,0.904-0.463c0-0.263-0.162-0.469-0.484-0.62c-0.32-0.153-0.771-0.323-1.345-0.512
		c-0.575-0.189-0.935-0.356-1.083-0.497c-0.671-0.443-0.992-1.104-0.969-1.979c0.019-0.875,0.309-1.577,0.869-2.108
		c0.546-0.521,1.249-0.788,2.105-0.813c0.855-0.024,1.941,0.277,3.258,0.899c-0.223,1.32-0.67,1.89-1.337,1.712
		c-1.753-0.626-2.608-0.646-2.562-0.059c0,0.234,0.157,0.438,0.472,0.603c0.314,0.171,0.759,0.356,1.334,0.557
		c0.571,0.202,0.936,0.355,1.09,0.462c0.634,0.5,0.952,1.205,0.952,2.111s-0.291,1.622-0.873,2.151
		C69.482,47.19,68.779,47.445,67.931,47.445L67.931,47.445z M60.216,43.731l-0.568-1.549l-0.569,1.549H60.216L60.216,43.731z
		 M50.575,41.242l1.84-2.208c0.299-0.363,0.704-0.543,1.217-0.543h1.31v7.778c0,0.767-0.439,1.15-1.31,1.15
		c-0.872,0-1.309-0.385-1.309-1.15v-3.652l-1.748,2.053l-1.745-2.039v3.638c0,0.767-0.438,1.148-1.31,1.148H46.21v-8.928h1.313
		c0.502,0.005,0.901,0.185,1.203,0.542L50.575,41.242L50.575,41.242z M44.047,43.626l1.19,1.625c0.323,0.381,0.477,0.73,0.466,1.044
		c-0.016,0.31-0.174,0.588-0.475,0.835c-0.304,0.248-0.622,0.364-0.956,0.354c-0.337-0.011-0.678-0.218-1.025-0.621l-2.069-2.828
		v2.235c0,0.767-0.439,1.15-1.31,1.15h-1.312v-8.931h1.313h2.96c0.733,0,1.34,0.284,1.827,0.846c0.486,0.562,0.728,1.166,0.728,1.81
		C45.383,42.297,44.939,43.122,44.047,43.626L44.047,43.626z M41.178,40.291v2.04h0.754c0.74,0,1.108-0.341,1.108-1.02
		c0-0.681-0.369-1.018-1.108-1.018h-0.754V40.291z M37.995,42.87c0,1.384-0.446,2.498-1.343,3.351
		c-0.894,0.854-2.028,1.279-3.4,1.279c-1.37,0-2.497-0.426-3.387-1.28c-0.884-0.853-1.326-1.97-1.326-3.351
		c0-1.38,0.439-2.496,1.321-3.356c0.882-0.856,2.02-1.286,3.41-1.286c1.39,0,2.525,0.43,3.404,1.286
		C37.555,40.374,37.995,41.489,37.995,42.87L37.995,42.87z M34.859,41.211c-0.393-0.436-0.925-0.655-1.585-0.655
		c-0.662,0-1.193,0.222-1.593,0.658c-0.403,0.439-0.602,0.99-0.602,1.658c0,0.671,0.199,1.22,0.602,1.649
		c0.4,0.436,0.932,0.648,1.59,0.648c0.66,0,1.188-0.216,1.588-0.652c0.399-0.438,0.597-0.989,0.597-1.654
		S35.257,41.648,34.859,41.211L34.859,41.211z M25.095,46.27v-2.274h1.598c0.679,0,1.02-0.352,1.02-1.059v-1.058h-2.619v-1.283
		h1.865c0.68,0,1.02-0.349,1.02-1.052v-1.053h-5.504v7.778c0,0.77,0.439,1.154,1.313,1.15C24.656,47.415,25.095,47.033,25.095,46.27
		L25.095,46.27z M20.797,47.42c0.68,0,1.018-0.35,1.018-1.051v-1.05h-2.883v-1.324h1.599c0.678,0,1.019-0.352,1.019-1.059v-1.058
		h-2.618v-1.283h1.863c0.68,0,1.019-0.349,1.019-1.052v-1.053h-5.504v8.929H20.797L20.797,47.42z M14.15,43.626l1.189,1.625
		c0.324,0.381,0.478,0.73,0.466,1.044c-0.013,0.31-0.171,0.588-0.474,0.835c-0.302,0.248-0.621,0.364-0.956,0.354
		c-0.337-0.011-0.677-0.218-1.025-0.62l-2.068-2.829v2.235c0,0.767-0.438,1.15-1.31,1.15H8.66v-8.931h1.312h2.961
		c0.732,0,1.342,0.284,1.827,0.846c0.486,0.562,0.726,1.166,0.726,1.81C15.486,42.297,15.041,43.122,14.15,43.626L14.15,43.626z
		 M11.28,40.291v2.04h0.753c0.741,0,1.11-0.341,1.11-1.02c0-0.681-0.369-1.018-1.11-1.018H11.28V40.291z"/>
</g>
</svg>
